<?xml version="1.0" standalone="no"?>
<!DOCTYPE svg PUBLIC "-//W3C//DTD SVG 1.1//EN" "http://www.w3.org/Graphics/SVG/1.1/DTD/svg11.dtd" >
<svg>
<metadata>
Created by FontForge 20090622 at Mon May 15 04:44:50 2017
 By deploy user
Typeface &#194;&#169; (The Seaworn Sail &#38; Seven Seas Design Co). 2015. All Rights Reserved
</metadata>
<defs>
<font id="Caleigh" horiz-adv-x="2108" >
  <font-face 
    font-family="Caleigh"
    font-weight="400"
    font-stretch="normal"
    units-per-em="2048"
    panose-1="3 0 5 0 0 0 0 0 0 0"
    ascent="1638"
    descent="-410"
    x-height="491"
    cap-height="1456"
    bbox="0 -1633.92 2678 1744"
    underline-thickness="150"
    underline-position="-142"
    unicode-range="U+001D-U+E033"
  />
<missing-glyph horiz-adv-x="1024" 
d="M100 0v1434h824v-1434h-824zM150 50h724v1334h-724v-1334zM325 1148q31 28 58 43q53 30 112 30q92 0 148 -47.5t56 -127.5q0 -49 -23 -98.5t-87 -129.5q-63 -80 -99 -132t-36 -99q0 -38 24 -133h-32q-35 97 -35 148q0 76 81.5 218t81.5 217q0 57 -33 90t-91 33
q-38 0 -69 -17q-26 -15 -56 -40v45zM389 334l57 58q11 10 20 10q10 0 22 -11l56 -60q9 -11 9 -20q0 -11 -10 -22l-56 -62q-14 -14 -21 -14q-11 0 -20 10l-61 71q-7 9 -7 18q0 10 11 22z" />
    <glyph glyph-name=".notdef" horiz-adv-x="1024" 
d="M100 0v1434h824v-1434h-824zM150 50h724v1334h-724v-1334zM325 1148q31 28 58 43q53 30 112 30q92 0 148 -47.5t56 -127.5q0 -49 -23 -98.5t-87 -129.5q-63 -80 -99 -132t-36 -99q0 -38 24 -133h-32q-35 97 -35 148q0 76 81.5 218t81.5 217q0 57 -33 90t-91 33
q-38 0 -69 -17q-26 -15 -56 -40v45zM389 334l57 58q11 10 20 10q10 0 22 -11l56 -60q9 -11 9 -20q0 -11 -10 -22l-56 -62q-14 -14 -21 -14q-11 0 -20 10l-61 71q-7 9 -7 18q0 10 11 22z" />
    <glyph glyph-name=".null" horiz-adv-x="0" 
 />
    <glyph glyph-name=".null" horiz-adv-x="0" 
 />
    <glyph glyph-name="nonmarkingreturn" horiz-adv-x="508" 
 />
    <glyph glyph-name="space" unicode=" " horiz-adv-x="508" 
 />
    <glyph glyph-name="space" unicode="&#xa0;" horiz-adv-x="508" 
 />
    <glyph glyph-name="exclam" unicode="!" horiz-adv-x="594" 
d="M352 986v-738q0 -97 -42 -97h-9q-52 0 -52 90q0 510 16 695q-7 144 58 163q29 -37 29 -113zM334 -104v-44q0 -37 -37 -37q-44 0 -44 118v16q0 31 26 39q38 0 55 -92z" />
    <glyph glyph-name="quotedbl" unicode="&#x22;" horiz-adv-x="439" 
d="M330 1302q47 0 67 -92v-25q0 -53 -57 -125q-3 0 -10 -5q-18 0 -20 23q7 19 7 53q0 38 -40 79q-8 14 -8 41q0 41 61 51zM88 1299h20q62 -30 62 -122q-3 -35 -44 -107q-17 -18 -20 -18h-10q-4 0 -11 10v8q0 4 6 41q0 64 -36 79q-20 27 -20 43v3q5 63 53 63z" />
    <glyph glyph-name="numbersign" unicode="#" horiz-adv-x="1402" 
d="M1007 648q34 0 37 -14v-5q0 -11 -88 -232h9q94 0 246 14l5 -9v-9q0 -38 -70 -38l-209 -9l-83 -232h292l10 -5q0 -46 -107 -46q-228 0 -228 -28q-70 -204 -121 -288q-8 -5 -18 -5q-47 6 -47 19l112 278h-5q-214 -25 -214 -32q-65 -161 -116 -251h-4q-42 9 -42 19l97 237
h-4q-48 -10 -172 -10h-23q-35 0 -37 14q0 51 46 51q127 14 218 14l84 233h-5q-319 -10 -367 -14l-9 23q0 32 60 32q299 11 349 28q108 239 121 246h4l23 -4v-14q0 -10 -88 -228h5q209 11 209 14q118 251 130 251zM640 323q-46 -122 -79 -232h5q150 13 199 23q41 84 89 223
h-5q-32 0 -209 -14z" />
    <glyph glyph-name="dollar" unicode="$" horiz-adv-x="839" 
d="M398 1052q33 0 30 -44t3 -72q124 -14 185.5 -57t78.5 -88t14.5 -80t-17.5 -30t-15.5 37.5t-55 98t-189.5 77.5q-7 -108 -3 -181q-4 -91 -2 -213q318 -156 312 -357.5t-186 -263.5q-44 -17 -130 -26q6 -79 -23 -117h-14q-29 0 -27 64l-4 51q-46 8 -100 22
q-87 39 -120 83.5t-43.5 82.5t7 46.5t46.5 -50t85.5 -91.5t126.5 -41q2 188 2 259v269q-165 101 -226 164q-43 57 -43 124q0 137 199 202q40 7 70 13q2 20 2 69t33 49h4zM212 647q55 -61 145 -107q2 70 2 125v57v169q-133 -10 -167.5 -96.5t20.5 -147.5zM423 122
q2 -186 3 -218q157 20 213.5 96.5t16.5 189.5t-233 214v-195v-87z" />
    <glyph glyph-name="percent" unicode="%" horiz-adv-x="1115" 
d="M321 913q44 0 157 -67q48 -16 77 -16h13q118 0 222 61q6 3 16 3h10q17 0 23 -13v-9q-9 -45 -174 -335q-35 -31 -193 -383q-58 -105 -167 -254q-26 -22 -48 -22h-11q-9 0 -9 35q0 22 132 203q89 164 167 347q94 171 190 328q-18 -3 -26 -3l-167 16q-35 -6 -35 -23
q12 -20 12 -67v-4q0 -186 -151 -269q-23 -13 -51 -13h-7q-99 0 -151 96q-25 84 -25 164q0 159 121 212q29 13 62 13h13zM292 482q18 -16 38 -16q93 0 136 168q9 39 9 80q0 97 -84 129q-28 12 -61 12q-46 -16 -73 -80q-23 -74 -23 -154q0 -64 58 -139zM954 241q16 -44 16 -87
q0 -172 -138 -228q-47 -13 -71 -13h-10q-143 0 -186 148q-13 39 -13 87q0 128 122 215q61 26 103 26q98 0 177 -148zM684 113q0 -123 90 -168h7q73 0 141 90q13 46 13 81q0 118 -77 206q-27 26 -64 26q-58 0 -81 -62q-29 -67 -29 -138v-35z" />
    <glyph glyph-name="ampersand" unicode="&#x26;" horiz-adv-x="1390" 
d="M952 1070h40q96 0 169 -139q20 -36 20 -90v-30q0 -371 -338 -468q-284 -55 -284 -175v-10q59 60 104 60h40q117 0 145 -174v-5q0 -249 -359 -294q-194 0 -284 269q-8 28 -15 90q0 179 244 328q-95 26 -95 165v10q0 123 195 224q24 15 64 15h15q63 0 75 -120h5
q41 92 60 100l10 -15q-21 -70 -125 -199h-5q-10 0 -10 10v5q35 36 35 69v15q0 105 -50 105h-5q-57 0 -134 -105q-20 -41 -20 -84v-35q0 -145 115 -145q5 -5 59 -10v-10h-74q-160 0 -244 -234q-10 -49 -10 -84q0 -267 234 -314h40q170 0 234 214q0 12 5 40q-17 149 -125 149
h-15q-89 -29 -89 -74v-65q0 -7 -15 -15q-50 33 -50 119q0 87 169 170q438 124 438 468q0 178 -129 224h-20q-68 0 -90 -154h-10q-15 44 -15 65q15 134 95 134z" />
    <glyph glyph-name="quotesingle" unicode="'" horiz-adv-x="203" 
d="M84 1298h20q62 -30 62 -123q-2 -36 -44 -109q-17 -18 -20 -18h-11q-4 0 -10 11v7q5 37 5 41q0 65 -37 80q-20 28 -20 44v3q6 64 55 64z" />
    <glyph glyph-name="parenleft" unicode="(" horiz-adv-x="603" 
d="M586 1483h17v-5q-11 -24 -124 -123q-242 -260 -349 -756q-29 -168 -29 -330q0 -513 182 -878q120 -193 219 -240q16 -16 16 -20v-22q0 -11 -7 -11h-20q-73 0 -260 218q-231 369 -231 926q0 627 374 1076q141 149 212 165z" />
    <glyph glyph-name="parenright" unicode=")" horiz-adv-x="601" 
d="M29 1480q112 0 306 -238q160 -265 188 -406q78 -263 78 -476v-37q0 -256 -78 -607q-40 -156 -182 -407q-143 -206 -205 -206q-15 9 -15 20q27 46 142 181q137 234 192 495q59 306 59 503q0 469 -215 845q-179 253 -280 285q0 3 -19 36v7z" />
    <glyph glyph-name="asterisk" unicode="*" horiz-adv-x="804" 
d="M410 1565q16 -2 16 -16v-196h8q84 86 118 86h8q11 0 24 -24v-23q0 -19 -71 -142h8q241 -71 244 -102q0 -16 -16 -16q-164 40 -244 40h-16q-20 0 -24 -32q79 -100 79 -118q0 -29 -110 45q-16 -210 -39 -210q-45 157 -41 187q-26 -31 -62 -109h-7q-16 26 -16 48
q0 26 39 126h-8q-60 -63 -94 -63h-8q-16 0 -16 15q6 0 115 115v15q-161 38 -162 59v8q0 16 136 29q-16 88 -10 117l27 -26q33 -49 50 -65q17 231 72 252z" />
    <glyph glyph-name="plus" unicode="+" horiz-adv-x="507" 
d="M238 568q48 -12 48 -48q8 -96 8 -125q24 -5 64 -5h64q59 0 59 -16v-3q0 -34 -56 -34q-78 0 -131 -6v-151q0 -46 -34 -46h-19q-24 0 -24 48v85q0 59 -19 59h-10q-152 0 -152 21q-5 0 -5 14v2q0 25 167 30q11 7 11 42q0 21 -3 99q0 34 32 34z" />
    <glyph glyph-name="comma" unicode="," horiz-adv-x="279" 
d="M138 5q47 0 63 -73q3 -10 3 -23v-3q0 -74 -76 -101h-8q-26 0 -30 35v6q0 2 10 30v2q0 12 -15 61v8q11 58 53 58z" />
    <glyph glyph-name="hyphen" unicode="-" horiz-adv-x="639" 
d="M456 435q6 -8 6 -12q-12 -29 -45 -29q-48 -11 -322 -25q-25 0 -25 17v1q0 31 98 31q260 17 288 17z" />
    <glyph glyph-name="hyphen" unicode="&#xad;" horiz-adv-x="639" 
d="M456 435q6 -8 6 -12q-12 -29 -45 -29q-48 -11 -322 -25q-25 0 -25 17v1q0 31 98 31q260 17 288 17z" />
    <glyph glyph-name="period" unicode="." horiz-adv-x="376" 
d="M149 4q41 0 51 -71q6 -29 6 -35q-11 -94 -46 -94h-6q-46 0 -62 106v17q0 77 57 77z" />
    <glyph glyph-name="slash" unicode="/" horiz-adv-x="542" 
d="M37 -203l34 9l7 7l183 493l246 684l35 98l-29 9l-36 -14l-161 -437l-316 -842z" />
    <glyph glyph-name="zero" unicode="0" horiz-adv-x="897" 
d="M460 1004h6q123 0 221 -130t90 -362t-70.5 -379.5t-176 -248.5t-215.5 -83t-145.5 106.5t-58.5 234t14 327t148 389.5h7q9 0 40 -40v-14q-120 -281 -88 -595t196 -289.5t245 227t59 453.5t-234 355q-32 9 -51 42z" />
    <glyph glyph-name="one" unicode="1" horiz-adv-x="711" 
d="M373 1000q118 76 120 -155q-59 -1041 -149 -1035h-23q-22 0 36 367t74.5 593t-161.5 3q-36 -74 -66 -49q0 17 169 276z" />
    <glyph glyph-name="two" unicode="2" horiz-adv-x="796" 
d="M516 998q86 -8 134 -127v-42q0 -110 -384 -909l2 -9l340 2l14 -7q22 -65 -196 -95q-158 -11 -213 -11q-63 9 -63 63v15q8 85 99 249q335 590 342 689t-64 127t-173 -106.5t-141 -78.5q26 79 191 198q66 42 112 42z" />
    <glyph glyph-name="three" unicode="3" horiz-adv-x="905" 
d="M478 998q75 8 117 -78l13 -32q-8 -137 -184 -296l-6 -14q311 -38 326 -242.5t-232 -373.5q-272 -162 -311 -162q-53 17 -61 41q320 142 406 230t98 234l-2 40q-8 119 -279 139q-33 19 -33 27v27q0 26 90 121q144 212 86.5 273t-342.5 -143q-10 -1 -17 -1q0 89 325 210h6z
" />
    <glyph glyph-name="four" unicode="4" horiz-adv-x="990" 
d="M656 996q31 -30 47 -69q-13 -186 -31 -305l-10 -80q98 -11 170 -39l-1 -62l-181 7q-28 -240 -53 -545q-7 -73 -27 -103q-72 21 -72 75q20 179 70 582l-262.5 32.5t-121.5 14.5q-14 28 -14 48q150 383 200 401l22 -22q-8 -49 -49.5 -113t-123.5 -268l358 -1
q28 124 39.5 227t14 149t25.5 71z" />
    <glyph glyph-name="five" unicode="5" horiz-adv-x="1099" 
d="M760 992q32 1 32 -17q32 -64 -285 -60q-136 -8 -210 -16q-4 -252 -19 -319q8 -15 8 -23q162 11 222 11h61q258 0 353 -223q8 -12 8 -38v-39q0 -164 -115 -291q-125 -99 -232 -127q-200 -56 -399 2q-40 35 -12 75q203 -43 312 -25q103 18 227 98q159 153 138.5 296.5
t-125 190t-264.5 18.5l-203 -54q-47 18 -97 47q18 168 42 291q6 71 44 186q74 -13 122 -11q113 4 337 22z" />
    <glyph glyph-name="six" unicode="6" horiz-adv-x="998" 
d="M466 998l15 -22l6 -34q-102 -119 -194.5 -352t-74.5 -473t240 -222q22 152 76 288q56 150 201 234l14 7h15q80 0 80 -79v-51q-26 -253 -165 -373.5t-278 -120.5h-7q-151 -14 -225 203q-15 58 -15 87q-4 317 152 697q95 211 160 211zM508 -100l57 18q141 88 188 340l-2 44
l-15 10q-109 -3 -169.5 -155t-58.5 -257z" />
    <glyph glyph-name="seven" unicode="7" horiz-adv-x="905" 
d="M590 998q153 -14 153 -94v-15q-15 -61 -313 -820q-78 -227 -116 -269h-7q-23 21 -33 53l-6 37q-8 34 217.5 523.5t172.5 516.5q-51 47 -475 -35q-34 12 -43 52v7q0 44 450 44z" />
    <glyph glyph-name="eight" unicode="8" horiz-adv-x="905" 
d="M521 998h19q83 -30 83 -64q-14 -37 -51 -36l-40 4q-88 50 -183 -89t63 -286l36 38q97 149 245 357q5 0 38 6q7 -12 7 -19q-216 -392 -254 -452q158 -189 158 -211q35 -51 45 -191q-6 -151 -83 -204q-53 -49 -147 -51h-38q-197 22 -255 169q-44 175 153 424q40 64 58 84
q-36 31 -75.5 98.5t-39.5 103.5v20q0 116 165 254q77 45 96 45zM451 405q-233 -256 -165 -409t176.5 -145t149 93.5t18.5 195.5t-179 265z" />
    <glyph glyph-name="nine" unicode="9" horiz-adv-x="998" 
d="M781 990q41 -13 44 -33l-95.5 -356.5t-171.5 -800.5q-53 0 -53 99v6q64 524 92 618q-39 -55 -100 -111t-149 -60q-161 -16 -178 184q10 139 112 244q186 177 256 177h7q21 0 52 -4v-13q-173 -91 -237.5 -152t-110.5 -138t-25 -164.5t116 -88t257 270.5q59 91 112 230
q55 92 72 92z" />
    <glyph glyph-name="colon" unicode=":" horiz-adv-x="500" 
d="M254 397q31 0 46 -39q6 -29 6 -40v-7q-7 -65 -54 -65q-50 16 -50 80q0 61 45 71h7zM253 52h8q32 0 45 -55v-27q0 -65 -49 -73h-4q-41 0 -49 67l-2 11q10 77 51 77z" />
    <glyph glyph-name="semicolon" unicode=";" horiz-adv-x="503" 
d="M250 396q31 0 46 -38q6 -31 6 -41v-8q-7 -66 -53 -66q-51 17 -51 82q0 62 45 71h7zM234 7h13q39 0 51 -66q0 -83 -42 -106q-12 -3 -16 -3h-8q-7 3 -7 12q0 11 4 46l-27 43l-8 28q9 46 40 46z" />
    <glyph glyph-name="equal" unicode="=" horiz-adv-x="507" 
d="M380 495h2q18 -3 18 -18q0 -30 -112 -38q-102 -12 -126 -12h-24q-40 0 -40 28q0 17 80 22q26 0 202 18zM354 277q66 0 66 -16v-10q0 -24 -196 -34q-39 -8 -94 -8q-9 3 -14 12v20q6 23 238 36z" />
    <glyph glyph-name="question" unicode="?" horiz-adv-x="774" 
d="M692.5 1002.5q45.5 -72.5 15.5 -197.5t-220 -263t-169.5 -229t78.5 -87l83 49q43 -20 43 -49q-52 -79 -134 -79q-109 22 -128 144q-18 134 175 288.5t199 284.5t-131.5 150t-231.5 -130t-106 -236l-15 -14q-30 16 -30 49v6q88 244 193.5 324t219 71t159 -81.5zM411 -48
q31 -18 29 -73v-6q-1 -63 -48 -67l-12 4q-16 25 -18 55l-2 28q4 50 51 59z" />
    <glyph glyph-name="at" unicode="@" horiz-adv-x="1340" 
d="M1001.5 668q84.5 -95 97.5 -244.5t-205 -394.5q-63 -64 -108 -64q-48 0 -48 76q4 56 20 124q-85 -109 -145 -146.5t-128 -24.5t-79.5 110t86.5 218t180 132t115 -19t15.5 -47t-25 5.5t-38.5 29.5t-79.5 -15.5t-108 -116t-59.5 -156t45.5 -76.5t123 51t185.5 279h8
q36 -9 36 -20v-8q0 -20 -35 -149t-22.5 -148t38.5 1.5t95.5 133.5t54.5 238.5t-107 206.5t-210 53t-276 -233.5t-94 -492.5t304.5 -267.5t487.5 451.5h4q50 -41 -47 -185.5t-222 -230.5t-286.5 -93t-270 128t-95.5 363t203 423t347.5 199t242 -91z" />
    <glyph glyph-name="A" unicode="A" 
d="M1488 1296q82 -40 12 -56q-85 74 -385 57t-556.5 -224t-361.5 -567t1 -790t397 -393t881 1497q49 224 124 292q72 -31 64 -108q-44 -208 -56 -406t-10 -481t28 -398t89 -131t249 440q135 368 144 292q-268 -734 -392 -832q-174 24 -237 248.5t-19 947.5
q-426 -1007 -645 -1249.5t-441 -118.5t-298 420.5t-14 653t351 624.5t634.5 307t440.5 -25z" />
    <glyph glyph-name="B" unicode="B" horiz-adv-x="1866" 
d="M152 1501q-19 -276 -27.5 -479t-6.5 -396.5t18 -395.5q19 265 96.5 535.5t246.5 460t303 181.5t195 -236l4 -50q0 -168 -118 -374t-222 -327h4q190 83 373 83h50q148 6 255.5 -75.5t135.5 -179.5t25 -114.5t1 -47.5q220 61 359 240l22 -1q-108 -182 -382 -275
q-12 -324 -204 -561.5t-410 -323.5t-342 -25t-88 207.5t137 255t235.5 198.5t285.5 155t302 101q4 78 -23.5 176t-123 171.5t-194.5 73.5t-205 -25q-227 -69 -429 -236l-50 24v9q254 238 307 332q224 339 224 605q-17 162 -124.5 183t-267.5 -158.5t-233 -405t-91.5 -402.5
t-28.5 -352q0 -46 12 -142t38 -256q-46 -111 -104 -119q-45 275 -71 570t-31 558t43 891q23 19 43.5 10.5t60.5 -63.5zM637.5 -838q112.5 -11 297 82.5t324 327.5t136.5 454q-374 -104 -610.5 -286t-275 -308.5t-11.5 -192.5t139.5 -77z" />
    <glyph glyph-name="C" unicode="C" horiz-adv-x="1918" 
d="M1216 1354q195 0 344 -116q84 -87 84 -108v-4q0 -6 -12 -12q-190 192 -300 192q-56 35 -263 8.5t-377 -148t-379 -409t-209 -703.5q0 -287 178 -543.5t489.5 -233.5t507.5 189t362.5 430.5t249.5 418.5l16 7q8 -1 11 2l-9 -22q-16 -52 -240 -426q-220 -324 -403 -461.5
t-464 -170.5q-595 -22 -766 510q-36 149 -36 356q0 343 228 680q112 162 368 356q285 208 620 208z" />
    <glyph glyph-name="D" unicode="D" horiz-adv-x="1778" 
d="M1463.5 1037.5q56.5 -177.5 67 -350t0 -288.5t-46.5 -280q115 82 273 209q21 6 17 -11q-29 -27 -87.5 -74t-210.5 -159q-82 -330 -273 -530.5t-373.5 -242.5t-173.5 42t93.5 191t248 237.5t395.5 287.5q32 179 45.5 353t-12.5 375t-137.5 385t-239.5 182t-365 -188.5
t-393.5 -449.5t-149.5 -448q14 -450 101 -1074l-4 -48q-8 -115 -75 -145h-25q-126 900 -132 1469t44 818q2 29 28 29q101 -32 93 -81q-31 -210 -35 -738q149 314 325.5 511.5t420.5 328.5t384.5 -1t197 -309.5zM844.5 -654q184.5 62 331.5 256.5t210 430.5
q-318 -228 -471.5 -366t-204 -260.5t134 -60.5z" />
    <glyph glyph-name="E" unicode="E" horiz-adv-x="1701" 
d="M1239 1146.5q75 -80.5 27 -92.5q-31 66 -116 112t-216.5 28.5t-329.5 -168.5t-217 -269.5t69.5 -140.5t189.5 -14.5t274 42t201.5 9.5t-125.5 -44q-321 -119 -568 -454t-290 -610.5t46.5 -369.5t309 -42.5t621.5 338.5q263 201 408.5 396t162.5 247h5q8 0 10 -12
q-48 -140 -266.5 -381.5t-643.5 -501.5q-295 -146 -474 -136t-248 124.5t-55.5 317t243 529.5t608.5 545q-209 -35 -395 -25t-186 163.5t278 327.5t440 168t237 -86.5z" />
    <glyph glyph-name="F" unicode="F" horiz-adv-x="1438" 
d="M112 1384q4 -35 4 -60q994 84 1140 84q182 -13 182 -24q-33 -44 -51.5 -48t-75.5 -3t-126.5 -1t-201.5 -10t-219 -17t-644 -57q6 -375 24 -562q42 -2 106 4q653 56 766 62l88 8l80 4q16 -44 -30 -38q-60 -8 -148 -13t-212 -17q-172 0 -652 -50q0 -329 10 -488
q6 -458 52 -1034q-44 -66 -102 -100q-35 464 -60 868q-24 732 -27 932t-4 323t-5 201l-6 70l14 24q39 0 63 -11t35 -47z" />
    <glyph glyph-name="G" unicode="G" horiz-adv-x="1942" 
d="M1325.5 1270q91.5 -39 110.5 -117.5t-26 -143.5l-37 -16l6 54q-10 149 -89.5 178.5t-204.5 8.5t-313 -127.5t-328.5 -259t-234.5 -417.5t-80 -473t136.5 -297.5t262 -50.5t376 278.5t363 391t189.5 171.5q56 4 92 -104q22 -133 15 -224.5t-11 -187.5q298 232 369 396
l21 -8q-28 -87 -173 -241q-172 -155 -224 -211q-25 -581 -101 -763.5t-188.5 -246t-197.5 26.5t-27 344t384 606q15 72 40 463l-2 104l-9 11q-38 -19 -252.5 -262.5t-395.5 -415.5t-350 -185t-293.5 98.5t-138.5 376t148 551.5t451 475.5t455 222t257.5 -5.5zM1135 -1133
q70 -6 121.5 97.5t88 245.5t72.5 572q-236 -229 -322 -446t-58 -340t98 -129z" />
    <glyph glyph-name="H" unicode="H" horiz-adv-x="1428" 
d="M76 1519q86 -21 62 -110q-20 -190 -25 -471.5t0 -452.5t5 -358q46 2 50 2q155 0 960 88q4 896 32 1104q24 12 52 12q24 -7 24 -36q-8 -134 -16 -288.5t-14 -779.5q144 12 150 12q31 -4 68 -4l4 -8q-36 -68 -196 -68q-6 -4 -28 -6q4 -214 14 -402q13 -136 -2 -164l-54 -32
q-20 322 -30 588q-32 0 -592 -56q-68 -4 -200 -4h-60q-43 0 -160 2q4 -276 40 -856q-30 -62 -84 -74q-49 458 -62.5 903.5t-11.5 875t34 585.5z" />
    <glyph glyph-name="I" unicode="I" horiz-adv-x="950" 
d="M476 1456h16q24 -14 24 -36v-40q0 -50 -132 -570.5t-156 -885.5q-10 -323 42.5 -407.5t108 -80t112.5 62.5t131 191t170.5 342l132.5 284l25 10l-139.5 -322.5t-179.5 -360.5t-201 -238.5t-179.5 4.5t-117.5 243.5t0 477t104 577t199 669.5v4q-72 -26 -186.5 -180.5
t-145.5 -259.5q-40 -137 -44 -248q4 -26 4 -52v-24h-4q-14 0 -20 44q-40 407 300 712q114 84 136 84z" />
    <glyph glyph-name="J" unicode="J" horiz-adv-x="1588" 
d="M1101 1500h8q15 0 30 -330q28 -354 62 -1101q174 86 345 248l42 12q-173 -189 -387 -299v-54q2 -718 -234 -1186q-49 -104 -231.5 -276t-432.5 -144q-168 34 -235.5 204t-58.5 331t141 390.5t956 731.5l-77 1461q19 12 72 12zM367 -1586.5q225 -7.5 475.5 312
t270.5 1261.5q-405 -261 -658.5 -458.5t-351 -431t-29.5 -455t293 -229z" />
    <glyph glyph-name="K" unicode="K" horiz-adv-x="1714" 
d="M1058 1129h5q48 38 -62.5 -148t-259.5 -346t-273 -227.5t-203 -101.5q147 -5 301 -43.5t326.5 -131t369 -313t299.5 -365.5t153 -236l-55 -14q-108 182 -301.5 431t-344 375t-347.5 192t-337 76t-182 -5q16 -641 81 -1116q-2 -53 -53 -75l-50 -40h-10q-47 114 -86 857
q-25 279 -27 664.5t38 708.5l23 18q83 -4 97 -51l-16 -345q-4 -168 5 -575q95 8 201 64.5t278 189.5q177 164 288 338t142 219z" />
    <glyph glyph-name="L" unicode="L" horiz-adv-x="1728" 
d="M550 1483q100 -8 110 -44q0 -77 -2 -156l-14 -290l-32 -448q-76 -764 -102 -912q282 -50 476 -43t329 107.5t245.5 299.5t144.5 320l26 9q-31 -147 -136.5 -340.5t-215 -285t-215.5 -116.5t-226 -22t-242.5 18t-193.5 23q-66 -338 -185.5 -401t-218 -1t-19.5 260t319 186
q24 120 114 1194q28 573 38 642zM183.5 -794q135.5 -15 204.5 409q-98 10 -191 -55t-121 -202t107.5 -152z" />
    <glyph glyph-name="M" unicode="M" horiz-adv-x="2264" 
d="M1071.5 1281.5q44.5 -201.5 -25.5 -1173.5h8q108 588 232 818.5t238 242.5q161 40 216.5 -526t84 -707.5t90.5 -163.5t329 556h4q16 -6 16 -12q-88 -234 -250 -504q-95 -176 -164 -128q-57 10 -97.5 136.5t-80 544.5t-72 587t-92.5 153q-78 -8 -182 -220
q-102 -170 -244 -891q-16 -28 -24 -28q-108 -7 -90 100q25 615 27 1035t-200 263.5t-330.5 -600.5t-262.5 -1554q-82 -104 -129.5 -26t-52 714t31.5 1189q14 38 46 26l24 -6q52 -2 44 -104q-18 -462 -16 -1635l24 58q119 1106 255 1462t282.5 488.5t231 119.5t129 -214.5z
" />
    <glyph glyph-name="N" unicode="N" horiz-adv-x="1678" 
d="M1278.5 281q143.5 -1183 363.5 21l36 14q-109 -707 -254 -704.5t-197.5 301l-161 904.5t-242 575.5t-251 -239t-168.5 -489t-222 -1487.5q-44 -42 -62 -48h-13q-66 -2 -86.5 584.5t-20.5 893t8 491.5q9 0 9 9q76 31 104 -42q0 -251 8 -868.5t13 -851.5q26 68 122 813
t247.5 1022.5t387.5 280.5t379.5 -1180z" />
    <glyph glyph-name="O" unicode="O" horiz-adv-x="2678" 
d="M1642 1071.5q283 -191.5 434.5 -389t219.5 -380t80 -297.5q141 83 287 319l15 -7l-15 -29q-60 -129 -208 -266l-77 -62q-30 -319 -285 -531.5t-533 -297t-622.5 -36t-512.5 537.5q-168 126 -296.5 379t-63 598t333.5 530t614 154t629 -222.5zM181 28.5
q74 -190.5 223 -331.5q-60 406 50 699.5t264.5 432.5t290.5 166t214 10q90 -21 90 -90q4 -2 4 -31h-7q-7 0 -42 55q-62 68 -239.5 29t-343 -287.5t-189.5 -577t21 -470.5q186 -124 718 -86t1098 425l10 21q-100 570 -532 914t-821.5 356t-606.5 -212.5t-246.5 -528
t44.5 -494zM537 -422q68 -211 209 -346t517 -119t717.5 259t357.5 564q-284 -195 -602 -307.5t-659 -121.5t-540 71z" />
    <glyph glyph-name="P" unicode="P" horiz-adv-x="1122" 
d="M1121.5 1060.5q0.5 -218.5 -91.5 -422.5t-288 -334t-526 -113q18 -476 82 -1048q-66 -115 -130 -106q-66 504 -92 1184q-21 10 -37.5 23t-38.5 37l20 10l54 -42q-2 65 -3 170t-2 265.5t-1 244t22 421.5l56 -1l76 -69l-20 -414q346 473 517 534t286.5 -30t116 -309.5z
M204 825q-2 -168 -2 -271.5t14 -336.5q356 -39 589 173.5t249 564.5t-127 417.5t-318 -75.5t-405 -472z" />
    <glyph glyph-name="Q" unicode="Q" horiz-adv-x="1868" 
d="M1652 812.5q216 -272.5 172 -692t-600 -845.5q107 -156 200 -156l80 12l4 -8q-27 -36 -92 -36q-114 0 -240 160q-268 -196 -540.5 -149t-418 217t-181.5 360t-22 335t104 341q0 417 163 608.5t398.5 250.5t496 -33t476.5 -364.5zM196 457q197 266 388 324.5t308 18
t138 -83.5q24 -56 -26.5 -3.5t-156.5 75t-276 -60.5t-349 -402q52 -263 158.5 -468.5t205.5 -255.5t207.5 -30t226.5 120q29 156 108 156h8q22 0 28 -16v-32q0 -34 -60 -100q-8 -30 -8 -36q40 -266 116 -370q532 417 568 796t-91.5 591t-343.5 360.5t-495 141.5
t-471.5 -193.5t-182.5 -531.5zM160 205q-68 -196 -40 -452t170.5 -422t383 -206t486.5 136l-8 14q-71 110 -116 292q0 8 -12 68q-131 -64 -196.5 -84t-175.5 -8t-216 122.5t-174 260.5t-102 279z" />
    <glyph glyph-name="R" unicode="R" horiz-adv-x="1893" 
d="M49 1386q95 26 132 -50q-40 -597 -26 -930q600 799 842 798t264.5 -297.5t-149.5 -494.5t-366.5 -298.5t-421.5 -160.5q87 -83 310.5 -239t371 -190t434.5 179t429 614l24 8q-150 -471 -501 -695q-283 -191 -433.5 -155t-420 246.5t-279 227.5t14.5 27q50 10 193.5 51
t298 138t275 244.5t151 331.5t-20.5 318.5t-183 111t-317.5 -207.5t-341.5 -391t-168 -272q0 -160 20 -526.5t42 -603.5q-33 -125 -120 -141q-51 387 -77 916.5t-15.5 857t38.5 583.5z" />
    <glyph glyph-name="S" unicode="S" horiz-adv-x="1699" 
d="M863 1156q-8 -24 -33 -25q-2 57 -69.5 87t-264 -56.5t-283 -200t-97.5 -234.5t62 -182t194.5 -80.5t346 -35.5t380.5 -79.5t231 -147.5q199 85 316 120q53 5 43 -11q-126 -41 -337 -130q102 -107 130 -249.5t-40 -318t-332 -352t-516.5 -194.5t-327 60.5t-25.5 224
t154 264.5t254 224.5t596 324.5q-153 154 -329 192t-405 50t-370 74.5t-118 264.5t300.5 358.5t396.5 146.5t143 -95zM517 -912q262 -2 493 152.5t310.5 321.5t66.5 312t-122 264q-299 -145 -500 -265.5t-353.5 -292t-154.5 -331t260 -161.5z" />
    <glyph glyph-name="T" unicode="T" horiz-adv-x="2172" 
d="M2168 1400q-90 -32 -288 -60q-647 -96 -892 -152l-4 -124q-4 -111 0 -336l52 -1576q6 -44 -44 -112l-36 -20q-37 168 -68 1256l-8 220q-8 189 8 672q-735 -188 -840 -204q-38 0 -32 20q-16 24 44.5 44t575.5 152q279 64 569.5 117t930.5 147q36 -20 32 -44z" />
    <glyph glyph-name="U" unicode="U" horiz-adv-x="1970" 
d="M320 1571q60 -25 64 -102q-76 -216 -122 -430.5t-93 -583t-26 -649t138.5 -427.5t298 -92t361 282.5t329.5 700.5t204 771t94 300q58 -30 40 -128.5l-83 -456t-83 -610t35 -394t168 5.5t305 571l20 -4q-154 -356 -252.5 -549t-179.5 -221t-128.5 50.5t-62.5 217t4 341
t83 604t79.5 368.5t-60 -424t-236.5 -740t-298.5 -495t-251.5 -201.5t-227 -55.5h-8q-117 0 -219.5 118.5t-157.5 380t-5 731.5t147.5 795.5t122.5 325.5z" />
    <glyph glyph-name="V" unicode="V" horiz-adv-x="1822" 
d="M1802 1311l20 -22l-271 -384t-290.5 -497.5t-224.5 -458.5l-115.5 -286.5t-104 -272t-70.5 -173.5q-68 0 -68 16l-168 556.5t-220 750t-290 849.5q37 34 134 -52q76 -180 182 -469.5t448 -1478.5l211.5 533.5t285 604t318.5 529t166.5 217t56.5 38.5z" />
    <glyph glyph-name="W" unicode="W" horiz-adv-x="1510" 
d="M469 1455q28 10 48 -73l-16 -41q-117 -247 -231 -593.5t-150 -784.5v-14q0 -179 46 -179h4q104 30 276 324t332 601q45 69 69 69h9q37 -14 47 -62q23 -51 -11 -330t-15 -566.5t93 -439t169.5 -184.5t204.5 193.5t123 759.5q-5 614 -58 1002l9 5q57 0 74.5 -348.5
t17.5 -632.5q-18 -486 -85.5 -676.5t-162.5 -281.5q-65 -76 -186 -49t-216.5 252.5t-96.5 514.5t80 779h-10q-78 -142 -285.5 -492.5t-303.5 -437.5q-63 -46 -83 -46h-4q-157 54 -157 294q12 290 127 657t283 697q34 75 59 83z" />
    <glyph glyph-name="X" unicode="X" horiz-adv-x="1752" 
d="M256 1241l422 -940l290 466.5t170 229.5q36 -28 24 -44q-82 -99 -183 -259l-164 -268t-109 -179q260 -499 320.5 -550t105.5 -59.5t114.5 28.5t209.5 212t268 443h28q-96 -220 -244 -424t-241.5 -274t-185.5 -64t-151 63t-129.5 184t-176.5 337l-280.5 -422t-281.5 -406
q-33 -27 -54 -26q-8 4 -8 12q369 535 596 902l-321 670.5l-169 367.5q76 50 150 0z" />
    <glyph glyph-name="Y" unicode="Y" horiz-adv-x="1782" 
d="M484 1441l48 -50q2 -37 -52 -130q-324 -593 -349 -961t89.5 -490.5t253 -77t252 239.5t176.5 384t132 373q121 254 224 236q45 4 80.5 -150.5t53.5 -406t24 -325t8 -104.5q179 127 342 348q8 4 12 4l4 -8q-100 -179 -350 -390q2 -221 2 -266t-1 -108t-20 -225
t-102.5 -336t-137.5 -214.5t-94 -29.5t-78.5 73t-43 233.5t39.5 321t99.5 248.5t89.5 138.5t112 110.5q-33 639 -44.5 762.5t-43.5 255.5h-12q-65 -27 -170.5 -308.5t-185.5 -471t-188.5 -312t-253 -128.5t-272.5 133t-105 510.5t461 1120.5zM1063 -1203q43 -24 86 17.5
t100 230t53 500.5l8 286q-127 -114 -190 -237.5t-100.5 -275t-18.5 -324.5t62 -197z" />
    <glyph glyph-name="Z" unicode="Z" horiz-adv-x="1292" 
d="M1108 1341h8q79 0 152 -76q21 -25 24 -56q0 -42 -168 -240q-385 -461 -544 -672q-356 -483 -408 -656q-38 -44 -84 -316v-28q0 -112 68 -112q38 0 123 19.5t305 186l379.5 280.5t172.5 112l-8 -20l-166 -136l-213.5 -173.5t-224.5 -176t-161 -108.5t-151 -48
q-113 0 -192 96q-20 50 -20 108q0 274 284 698.5t324 478.5t123.5 158.5l140 171l318.5 381.5l10 36q-225 24 -560 -160t-424 -248q-75 -43 -108 -48q-29 6 -52 36v4q169 141 640 384q271 124 412 124z" />
    <glyph glyph-name="backslash" unicode="\" horiz-adv-x="535" 
d="M0 1081l462 -1271l47 -12l27 13l-474 1274l-44 13z" />
    <glyph glyph-name="asciicircum" unicode="^" horiz-adv-x="301" 
d="M154 433q40 0 51 -86q-8 -58 -56 -58q-43 0 -57 48v22q14 74 43 74h19z" />
    <glyph glyph-name="underscore" unicode="_" horiz-adv-x="680" 
d="M474 -24h3q31 0 31 -24v-17q0 -5 -170 -17q-232 -20 -255 -20q-58 0 -74 23v4q0 14 48 18q96 14 417 33z" />
    <glyph glyph-name="a" unicode="a" horiz-adv-x="941" 
d="M617 434q32 -15 11 -146q-22 -251 15.5 -318t68.5 -30t111.5 198t88.5 178q25 12 29 11q-184 -393 -218 -429t-79 -28.5t-70.5 33t-41.5 110t3 353.5q-241 -345 -360.5 -376.5t-147 58t12 225.5t236.5 229t281 56.5t67 -64.5q-59 33 -170 21.5t-225.5 -121t-102.5 -264
t145 -40.5t237 305q26 39 58 51l32 -1z" />
    <glyph glyph-name="b" unicode="b" horiz-adv-x="869" 
d="M101 1194l5 -932q16 -238 22 -249q11 301 131.5 417t233.5 51t106 -217l-10 -140q97 42 245 188q13 7 35 14q-102 -136 -283 -240q-52 -180 -138 -276t-230 -109.5t-126 60.5t227 224l172 101q7 357 -145 360.5t-199 -455.5q0 -105 -22 -145l-56 -86q-29 -16 -46 117
q-19 255 -18 570q-2 300 -5 702q38 51 101 45zM61 502zM279 -256q141 44 213 310q-287 -164 -320.5 -259t107.5 -51z" />
    <glyph glyph-name="c" unicode="c" horiz-adv-x="707" 
d="M335 552q96 -61 55 -113l-15 -6q-28 121 -89 80q-111 -64 -141.5 -197.5t-19 -258t97.5 -191t199 26.5t248 410q5 11 9 18l28 10q-31 -88 -130 -278t-217.5 -247.5t-230 10.5t-129.5 287q12 318 226 423q49 30 109 26z" />
    <glyph glyph-name="d" unicode="d" horiz-adv-x="919" 
d="M648 1022q-36 -179 -102 -605q-24 -298 -18 -365.5t31.5 -164t71.5 -70t110.5 173.5l145.5 322l32 16q-199 -477 -227 -522.5t-63 -76.5t-104 29q-104 142 -59 608q-208 -499 -337 -479.5t-91 301.5t194 308q61 7 93.5 -7.5t52.5 -76.5q10 -54 -34 -26q-13 52 -69 50
t-97.5 -115t-51.5 -268t67.5 -92t147 205t93.5 227t101 501t112 388l26 -36q11 -46 -25 -225z" />
    <glyph glyph-name="e" unicode="e" horiz-adv-x="588" 
d="M312 594.5q25 -55.5 -52 -173.5t-140 -176q1 -106 45.5 -240t76 -133.5t97.5 63t131.5 192.5t88.5 188l29 15q-122 -315 -252 -443t-238 20q-60 121 -82 261q-16 106 35 263q82 178 159 198.5t102 -35zM119 294l59 65q106 144 87 209.5t-74 0.5q-65 -126 -70 -207z" />
    <glyph glyph-name="f" unicode="f" horiz-adv-x="610" 
d="M152 915q-8 -117 -12 -201.5t-12.5 -220t-22.5 -493.5t46 -625q40 -109 138.5 -73t119.5 184q4 225 -49 348.5t-88.5 164.5t-68.5 75l14 28q272 89 358 212q20 9 35 14l-18 -29q-98 -140 -325 -195v-12q78 -113 120 -228q58 -141 60 -336q0 -116 -71 -207t-170 -99.5
t-154 172.5q-52 264 -41 558q0 177 4 321l6 155q13 442 38 643q102 24 101.5 -7.5t-8.5 -148.5z" />
    <glyph glyph-name="g" unicode="g" horiz-adv-x="1088" 
d="M611 551q98 -43 58 -70q-228 98 -322 -195.5t22 -301.5q89 36 293 366q31 45 57 39q62 -9 77 -73q6 -64 -36 -280q166 83 293 275q17 12 35 17q-11 -28 -93.5 -136t-236.5 -188q-55 -445 -110.5 -707t-157 -356.5t-214 -53t-170.5 175t-14.5 289.5t156 284.5t432.5 373.5
q76 382 -15 271q-114 -195 -171 -254q-69 -69 -152 -82q-110 0 -142 186v33q0 118 136 272q151 133 275 115zM275 -1067q135 -81 231.5 174t172.5 863q-308 -234 -424 -383.5t-115.5 -361t135.5 -292.5z" />
    <glyph glyph-name="h" unicode="h" horiz-adv-x="959" 
d="M141 1431q31 -9 42 -55v-90q-59 -910 -50.5 -1194t36.5 -288q77 410 182 508t179 -28t112 -216.5t70 -142t84 53.5t134 336l29 15q-137 -428 -188 -470.5t-108 38t-135.5 274t-155 113t-125 -320t-91.5 -228.5h-17q-95 34 -109 437q0 9 -4 94q-26 176 8 845
q15 227 38 308z" />
    <glyph glyph-name="i" unicode="i" horiz-adv-x="461" 
d="M84 770q45 1 51 -30q-5 -34 -27 -66l-37 -12q-5 0 -15 15l-12 15q2 54 40 78zM112 480l10 -36l4 -28q-18 -156 -19 -219.5t3 -158t45.5 -120.5t102.5 62q141 285 172 333l31 16q-191 -391 -209 -407q-122 -172 -222 28q-20 78 -24 107t-2 111q-4 232 18 298q45 24 90 14z
" />
    <glyph glyph-name="j" unicode="j" horiz-adv-x="804" 
d="M236 730q48 0 48 -108q-5 -36 -36 -36h-4q-44 0 -44 108q6 36 36 36zM765 318q39 15 19 -18q-32 -33 -150 -140l-100 -84q154 -416 172 -726q-8 -369 -218 -536q-106 -56 -184 -56q-237 0 -300 344l-4 116q8 286 148 484q69 95 280 324q-112 246 -146 336l4 36
q26 63 82 52q32 -51 153 -350q140 114 244 218zM444 -4q-326 -328 -360 -478q-60 -167 -60 -316q0 -294 184 -392q48 -16 92 -16q188 0 284 328q16 65 20 164q-6 203 -75 432.5t-85 277.5z" />
    <glyph glyph-name="k" unicode="k" horiz-adv-x="833" 
d="M218 1317q64 -4 51 -238q-21 -267 -61 -439t-95 -305q-7 -42 4 -154l20 81l29 -24q405 89 276 175t-278 -193l-26 43q151 345 345 204.5t-304 -276.5q199 -250 296 -300q100 -84 326 418l32 17l-4 -9q-152 -372 -303 -539l-70 13q-51 26 -210 200l-99 158l5 -508
q-18 -60 -82 -86q-16 -4 -42 460q-16 318 -16 558q-12 224 46 487t160 257zM104 386q56 202 79.5 315t43.5 321.5t-13 244.5q-41 48 -73 -179q-26 -156 -37 -352v-350z" />
    <glyph glyph-name="l" unicode="l" horiz-adv-x="544" 
d="M230 1227l14 -6q54 -10 63 -117.5t-43.5 -322.5t-167.5 -520q4 -255 35.5 -369.5t90.5 -91.5t153.5 219.5l138.5 293.5l30 16q-35 -92 -184 -410q-90 -172 -137.5 -206t-96.5 -21t-87.5 178.5t-20.5 562.5t81.5 606.5t130.5 187.5zM96 333q72 172 127 399t53 330.5
t-49.5 104t-84 -288.5t-40.5 -348.5t-6 -196.5z" />
    <glyph glyph-name="m" unicode="m" horiz-adv-x="1123" 
d="M294 521q99 45 113 -43l39.5 -261t21.5 -188q74 198 125.5 361t107.5 164l18 3q84 17 85.5 -99t-3.5 -462q17 -136 51 -137.5t88 83.5t153 372l30 13q-109 -324 -172 -424t-136 -86t-95 85.5t-12.5 340.5t-40.5 159q-40 -101 -88 -250t-94 -250q-50 -33 -58 27
q-18 132 -45 364.5t-71 158.5q-44 -68 -181 -564q4 -153 -44 -137q-58 -4 -62 -6q-24 2 -22 487l4 78q4 101 32 236l36 -11q34 -42 36 -108q0 -202 11 -451l16 62q97 387 157 483z" />
    <glyph glyph-name="n" unicode="n" horiz-adv-x="944" 
d="M566.5 209q29.5 -193 51.5 -219.5t52.5 -4.5t101.5 123l140 206l32 15q-245 -402 -301 -433.5t-82.5 -7t-45.5 73.5t-51 268l-12 98q-11 60 -28 48q-54 -51 -84 -124l-143.5 -364.5t-130.5 -119.5q-46 51 -58 568q-8 112 2 230l64 30q42 4 42 -176q-4 -115 -2 -190
q-18 -530 68.5 -292.5t130.5 324.5q93 190 158.5 165t95 -218z" />
    <glyph glyph-name="o" unicode="o" horiz-adv-x="755" 
d="M498 267l4 -54q-2 -123 -42 -185q168 93 264 286l31 15q-51 -111 -101.5 -169.5t-106.5 -103.5t-104 -60q-91 -137 -185 -153t-162.5 41t-82 188t72.5 237v27q4 116 81.5 163.5t192.5 -27t138 -205.5zM180 352q89 36 124.5 26t45.5 -32v-4q-46 33 -92.5 11.5t-74.5 -58.5
q1 -105 60 -197t179 -77q46 64 30 196q-37 182 -137 245t-134 -83zM115 184q-24 -93 13.5 -190.5t108.5 -115.5t169 116q-152 -16 -212.5 51t-78.5 139z" />
    <glyph glyph-name="p" unicode="p" horiz-adv-x="859" 
d="M171 -717q4 -59 8 -97q-28 -132 -70 -46q-24 47 -58 351.5t-42.5 549.5t-6 325.5t12.5 166.5l36 -6l56 -48q-6 -83 -10 -181l8 -123q102 207 180.5 262t147.5 45t105 -76t38 -158.5t-14 -178.5q192 59 269 244l28 15q-78 -215 -304 -300q-130 -190 -270.5 -230t-128.5 45
t96 132.5t240 77.5q33 149 7.5 279t-124 111t-169.5 -136t-97 -203q-2 -194 24 -437.5t38 -383.5zM481 11q-231 -45 -288.5 -140t75.5 -62t213 202z" />
    <glyph glyph-name="q" unicode="q" horiz-adv-x="876" 
d="M468 364q48 -12 52 -52q6 -66 -43 -329.5t-75 -624.5q-20 -254 56.5 -269.5t119.5 247.5q16 90 16 176q0 176 -56 412q219 193 311 389l27 16q-71 -199 -306 -421q56 -248 43 -553t-151 -333l-32 8q-112 75 -98 394q6 126 62 682l4 18q-174 -228 -260 -230
q-120 -6 -136 176l-2 44q4 216 106 324q93 92 240 4q36 -17 16 -70q-129 151 -182 36q-38 -49 -65 -253.5t59 -202.5q48 -16 228 210q20 103 40 192z" />
    <glyph glyph-name="r" unicode="r" horiz-adv-x="764" 
d="M194 513q17 -68 -37 -186q49 8 145.5 38t134.5 -50q17 -58 1 -144q-42 -162 -34 -300t73.5 -61.5t143 249.5l110.5 252l33 19l-121.5 -290t-172.5 -293q-71 -72 -131.5 30t12.5 413q32 133 -32 145q-110 -19 -167.5 -36.5t-102.5 19.5q-49 65 -10 137q83 88 155 58z
M130 344q25 11 37 83q0 65 -43 28.5t-17 -92.5z" />
    <glyph glyph-name="s" unicode="s" horiz-adv-x="739" 
d="M272 656h36q36 0 36 -32v-16q0 -97 -164 -288q185 -87 328 -240q174 181 196 233l35 16q-20 -74 -219 -273q16 -74 16 -104q0 -167 -164 -276q-28 -16 -92 -24q-104 17 -104 68v16q21 90 264 292q-36 107 -360 268q-80 44 -80 100v4q0 98 124 200q80 54 148 56zM92 368
q28 -26 60 -36q149 176 160 264v4q0 9 -20 12q-119 -36 -164 -112q-36 -60 -36 -132zM220 -280q11 -32 52 -32q134 0 184 132q16 65 16 92v28q0 24 -12 60q-240 -180 -240 -280z" />
    <glyph glyph-name="t" unicode="t" horiz-adv-x="1016" 
d="M976 945v-34q-104 -5 -170 -11.5t-174 -18.5l-74 -6q-34 -312 -39 -710t52.5 -423.5t129.5 81.5l286 490l11 9q18 13 16 6q-3 -30 -316 -571q-59 -80 -115 -90t-98.5 25t-54.5 195l2 150q12 502 54 830q-60 -2 -154 -12q-102 -4 -298 -34l-20 -2q-14 -10 0 50
q186 14 308 26q104 8 172 16q6 30 18 108l60 1q-12 -88 -10 -103l276 20q38 0 72 4q35 2 66 4z" />
    <glyph glyph-name="u" unicode="u" horiz-adv-x="851" 
d="M100 457l17 -19l-6 -50q-7 -48 -15 -127q-23 -209 6 -326q18 -56 82 20q64 78 177 446q51 100 108 90l14 -22q2 34 -19 -335q23 -299 94 -284l26 7q70 63 130 187q33 57 107 267l22 21q8 -1 8 -8q-154 -465 -307 -558q-84 4 -155 153q-31 97 -31 157l-4 69
q-36 -119 -92 -209q-54 -71 -110 -73q-152 -23 -135 327q9 258 57 258z" />
    <glyph glyph-name="v" unicode="v" horiz-adv-x="762" 
d="M14 502q93 40 118 -54q6 -206 86 -474t138 -150q53 126 131 486l18 15q135 -145 240 6l17 -10q-83 -144 -240 -56q-41 -313 -151 -506q-38 -71 -89.5 -62t-112.5 116t-115 323.5t-40 365.5z" />
    <glyph glyph-name="w" unicode="w" horiz-adv-x="1229" 
d="M167 353q-36 -119 -37.5 -355.5t70.5 -240t114 152.5l67.5 257.5t55.5 107.5l54 16q30 -14 57.5 -169t99.5 -260.5t97.5 -21t16 235t-12.5 202t104 81.5q157 -265 327 -70l16 23l33 16q-142 -263 -389 -73q14 -177 -0.5 -329.5t-88 -196.5t-129 -5t-97 114t-97.5 268
q-28 -23 -94.5 -228.5t-154.5 -186.5q-179 107 -61 747q41 99 63 66.5t-14 -151.5z" />
    <glyph glyph-name="x" unicode="x" horiz-adv-x="760" 
d="M42 410q36 22 170 -228q114 141 246 343q34 23 24 -8q-137 -230 -244 -365q28 -32 68.5 -102t77.5 -112q25 -32 50 -20q16 -14 94.5 103l197.5 293l34 15q-68 -115 -184 -291q-101 -155 -174 -208q-49 -28 -136 114l-92 134q-61 -92 -127 -181l-29 3q-13 1 -16 7
q33 52 148 207q-82 123 -150 200q6 61 42 96z" />
    <glyph glyph-name="y" unicode="y" horiz-adv-x="972" 
d="M112 488q6 -89 -4 -144t-16.5 -150.5t40.5 -109.5q105 -10 294 232q49 74 80 94q82 16 108 -88q-22 -118 -30 -254q259 125 344 240l44 24q-76 -158 -396 -306q-80 -821 -202.5 -943.5t-211 -7.5t-73.5 285.5t129.5 380.5t279.5 301q18 114 30 231.5t-38 70.5
q-60 -104 -152 -202q-159 -144 -234 -104q-100 48 -104 170q4 166 30 306q44 28 82 -26zM498 0q-206 -123 -304 -371t-49 -420.5t141 -112.5t192 748z" />
    <glyph glyph-name="z" unicode="z" horiz-adv-x="964" 
d="M225 589q60 -23 60 -68v-12q0 -62 -136 -526q229 206 355 199t179 -88q135 79 257 234h24q-114 -163 -264 -256q21 -47 27 -79.5t5 -140.5t-41.5 -321t-128 -368t-201 -192.5t-166 154.5t70 485.5t353.5 451.5q-20 65 -89 84.5t-159 -34t-142.5 -102.5t-165.5 -175
l-19 -4q-30 10 -30 34q0 14 86 217q118 369 118 461q-5 0 -12 4q-95 -130 -184 -239l-22 4q122 164 163 247q23 28 62 30zM626 33q-201 -152 -302.5 -390.5t-68.5 -469t123.5 -133.5t137.5 244t69 278.5t34 254t7 216.5z" />
    <glyph glyph-name="braceleft" unicode="{" horiz-adv-x="867" 
d="M761 1589h6q24 0 34 -18q-16 -8 -93 -24q-100 -44 -152 -139q-35 -51 -62 -226q-16 -213 -24 -288q-47 -208 -175 -329q-19 -20 -115 -84l-2 -6q171 -98 171 -370v-37q0 -35 -24 -267q0 -237 181 -432q57 -79 244 -126l36 -3q39 3 77 16l4 -6v-13q-52 -33 -123 -33
q-130 0 -338 157q-190 175 -190 398v29q0 66 46 268q2 10 6 72q0 283 -163 328q-21 7 -33 16q0 11 60 30q117 60 175 175q26 56 105 490q47 203 96 286q87 136 253 136z" />
    <glyph glyph-name="bar" unicode="|" horiz-adv-x="594" 
d="M249 1371l-3 -841l-3 -831v-83l69 -24l43 34l5 1121v610l-45 31l-55 14z" />
    <glyph glyph-name="braceright" unicode="}" horiz-adv-x="742" 
d="M52 1595h9q187 0 329 -205q111 -191 111 -519q18 -206 56 -236q31 -65 185 -130v-2q-88 -63 -124 -96q-114 -105 -114 -223v-41q0 -104 65 -367q10 -49 10 -75v-46q0 -175 -156 -343q-130 -102 -178 -102h-13q0 19 80 64q146 145 146 375q0 25 -41 340v50q0 264 182 392
q0 3 78 68q-118 48 -167 97q-66 70 -89 182q-12 67 -37 306q-43 215 -91 306q-63 113 -194 164l-99 22v6q0 13 52 13z" />
    <glyph glyph-name="asciitilde" unicode="~" horiz-adv-x="936" 
d="M785 418q-24 -61 -66 -105t-86.5 -58t-170.5 39t-160 53h-5q-70 0 -134 -68q-16 -22 -23 -9q5 45 60 89.5t106 57t155.5 -42.5t172.5 -43q66 0 130 78q4 13 11.5 20t9.5 -11z" />
    <glyph glyph-name="degree" unicode="&#xb0;" horiz-adv-x="337" 
d="M171 974q-38 -7 -61.5 -38t-23.5 -76t21.5 -75.5t65.5 -34.5q51 4 81 32.5t30.5 82t-33 83.5t-80.5 26zM170 1001q57 0 97 -37.5t41 -101.5q-2 -68 -44.5 -104.5t-94.5 -34.5q-59 0 -99 40.5t-40 98.5t41 98.5t99 40.5z" />
    <glyph glyph-name="Agrave" unicode="&#xc0;" 
d="M1488 1296q82 -40 12 -56q-85 74 -385 57t-556.5 -224t-361.5 -567t1 -790t397 -393t881 1497q49 224 124 292q72 -31 64 -108q-44 -208 -56 -406t-10 -481t28 -398t89 -131t249 440q135 368 144 292q-268 -734 -392 -832q-174 24 -237 248.5t-19 947.5
q-426 -1007 -645 -1249.5t-441 -118.5t-298 420.5t-14 653t351 624.5t634.5 307t440.5 -25zM1192 1520q36 0 88 -84v-12q0 -8 -8 -8h-20q-100 43 -100 68v8q10 28 40 28z" />
    <glyph glyph-name="Aacute" unicode="&#xc1;" 
d="M1488 1296q82 -40 12 -56q-85 74 -385 57t-556.5 -224t-361.5 -567t1 -790t397 -393t881 1497q49 224 124 292q72 -31 64 -108q-44 -208 -56 -406t-10 -481t28 -398t89 -131t249 440q135 368 144 292q-268 -734 -392 -832q-174 24 -237 248.5t-19 947.5
q-426 -1007 -645 -1249.5t-441 -118.5t-298 420.5t-14 653t351 624.5t634.5 307t440.5 -25zM1280 1492v-8q0 -25 -100 -68h-20q-8 0 -8 8v12q52 84 88 84q30 0 40 -28z" />
    <glyph glyph-name="Acircumflex" unicode="&#xc2;" 
d="M1488 1296q82 -40 12 -56q-85 74 -385 57t-556.5 -224t-361.5 -567t1 -790t397 -393t881 1497q49 224 124 292q72 -31 64 -108q-44 -208 -56 -406t-10 -481t28 -398t89 -131t249 440q135 368 144 292q-268 -734 -392 -832q-174 24 -237 248.5t-19 947.5
q-426 -1007 -645 -1249.5t-441 -118.5t-298 420.5t-14 653t351 624.5t634.5 307t440.5 -25zM1212 1504q12 0 93 -82v-12q0 -8 -8 -8h-8q-24 0 -69 50h-4q-46 -46 -69 -50h-16q-8 0 -8 8v12z" />
    <glyph glyph-name="Atilde" unicode="&#xc3;" 
d="M1488 1296q82 -40 12 -56q-85 74 -385 57t-556.5 -224t-361.5 -567t1 -790t397 -393t881 1497q49 224 124 292q72 -31 64 -108q-44 -208 -56 -406t-10 -481t28 -398t89 -131t249 440q135 368 144 292q-268 -734 -392 -832q-174 24 -237 248.5t-19 947.5
q-426 -1007 -645 -1249.5t-441 -118.5t-298 420.5t-14 653t351 624.5t634.5 307t440.5 -25zM1400 1534q-15 -37 -40.5 -64t-53.5 -36t-105 23.5t-98 32.5h-3q-44 0 -82 -41q-10 -14 -15 -5q4 27 37.5 54t65 35t95.5 -25.5t106 -26.5q41 0 79 48q3 8 8 12.5t6 -7.5z" />
    <glyph glyph-name="Adieresis" unicode="&#xc4;" 
d="M1488 1296q82 -40 12 -56q-85 74 -385 57t-556.5 -224t-361.5 -567t1 -790t397 -393t881 1497q49 224 124 292q72 -31 64 -108q-44 -208 -56 -406t-10 -481t28 -398t89 -131t249 440q135 368 144 292q-268 -734 -392 -832q-174 24 -237 248.5t-19 947.5
q-426 -1007 -645 -1249.5t-441 -118.5t-298 420.5t-14 653t351 624.5t634.5 307t440.5 -25zM1349 1486q31 0 38 -32q4 -12 4 -15q-7 -41 -34 -41h-3q-35 0 -47 47v7q0 34 42 34zM1167 1480q31 0 38 -32q4 -12 4 -15q-7 -41 -34 -41h-3q-35 0 -47 47v7q0 34 42 34z" />
    <glyph glyph-name="Aring" unicode="&#xc5;" 
d="M1488 1296q82 -40 12 -56q-85 74 -385 57t-556.5 -224t-361.5 -567t1 -790t397 -393t881 1497q49 224 124 292q72 -31 64 -108q-44 -208 -56 -406t-10 -481t28 -398t89 -131t249 440q135 368 144 292q-268 -734 -392 -832q-174 24 -237 248.5t-19 947.5
q-426 -1007 -645 -1249.5t-441 -118.5t-298 420.5t-14 653t351 624.5t634.5 307t440.5 -25zM1324 1534q21 -19 21 -53t-19 -52q-20 -19 -52 -22q-28 3 -42 22q-14 20 -14 49t15 49q15 19 39 24q31 2 52 -17zM1208 1542q-26 -26 -26 -63t26 -63t63 -26q34 -1 61 22
q27 24 28 67q-1 41 -26 65q-26 24 -63 24t-63 -26z" />
    <glyph glyph-name="Ccedilla" unicode="&#xc7;" horiz-adv-x="1918" 
d="M1216 1354q195 0 344 -116q84 -87 84 -108v-4q0 -6 -12 -12q-190 192 -300 192q-56 35 -263 8.5t-377 -148t-379 -409t-209 -703.5q0 -287 178 -543.5t489.5 -233.5t507.5 189t362.5 430.5t249.5 418.5l16 7q8 -1 11 2l-9 -22q-16 -52 -240 -426q-220 -324 -403 -461.5
t-464 -170.5q-595 -22 -766 510q-36 149 -36 356q0 343 228 680q112 162 368 356q285 208 620 208zM834 -742q-49 -30 -61 -69q124 14 114.5 -81t-152.5 -88q-84 14 -86.5 41t79.5 -6q102 -11 102.5 51t-114.5 54l54 97z" />
    <glyph glyph-name="Egrave" unicode="&#xc8;" horiz-adv-x="1701" 
d="M1239 1146.5q75 -80.5 27 -92.5q-31 66 -116 112t-216.5 28.5t-329.5 -168.5t-217 -269.5t69.5 -140.5t189.5 -14.5t274 42t201.5 9.5t-125.5 -44q-321 -119 -568 -454t-290 -610.5t46.5 -369.5t309 -42.5t621.5 338.5q263 201 408.5 396t162.5 247h5q8 0 10 -12
q-48 -140 -266.5 -381.5t-643.5 -501.5q-295 -146 -474 -136t-248 124.5t-55.5 317t243 529.5t608.5 545q-209 -35 -395 -25t-186 163.5t278 327.5t440 168t237 -86.5zM960 1388q36 0 88 -84v-12q0 -8 -8 -8h-20q-100 43 -100 68v8q10 28 40 28z" />
    <glyph glyph-name="Eacute" unicode="&#xc9;" horiz-adv-x="1701" 
d="M1239 1146.5q75 -80.5 27 -92.5q-31 66 -116 112t-216.5 28.5t-329.5 -168.5t-217 -269.5t69.5 -140.5t189.5 -14.5t274 42t201.5 9.5t-125.5 -44q-321 -119 -568 -454t-290 -610.5t46.5 -369.5t309 -42.5t621.5 338.5q263 201 408.5 396t162.5 247h5q8 0 10 -12
q-48 -140 -266.5 -381.5t-643.5 -501.5q-295 -146 -474 -136t-248 124.5t-55.5 317t243 529.5t608.5 545q-209 -35 -395 -25t-186 163.5t278 327.5t440 168t237 -86.5zM1080 1368v-8q0 -25 -100 -68h-20q-8 0 -8 8v12q52 84 88 84q30 0 40 -28z" />
    <glyph glyph-name="Ecircumflex" unicode="&#xca;" horiz-adv-x="1701" 
d="M1239 1146.5q75 -80.5 27 -92.5q-31 66 -116 112t-216.5 28.5t-329.5 -168.5t-217 -269.5t69.5 -140.5t189.5 -14.5t274 42t201.5 9.5t-125.5 -44q-321 -119 -568 -454t-290 -610.5t46.5 -369.5t309 -42.5t621.5 338.5q263 201 408.5 396t162.5 247h5q8 0 10 -12
q-48 -140 -266.5 -381.5t-643.5 -501.5q-295 -146 -474 -136t-248 124.5t-55.5 317t243 529.5t608.5 545q-209 -35 -395 -25t-186 163.5t278 327.5t440 168t237 -86.5zM1008 1384q12 0 93 -82v-12q0 -8 -8 -8h-8q-24 0 -69 50h-4q-46 -46 -69 -50h-16q-8 0 -8 8v12z" />
    <glyph glyph-name="Edieresis" unicode="&#xcb;" horiz-adv-x="1701" 
d="M1239 1146.5q75 -80.5 27 -92.5q-31 66 -116 112t-216.5 28.5t-329.5 -168.5t-217 -269.5t69.5 -140.5t189.5 -14.5t274 42t201.5 9.5t-125.5 -44q-321 -119 -568 -454t-290 -610.5t46.5 -369.5t309 -42.5t621.5 338.5q263 201 408.5 396t162.5 247h5q8 0 10 -12
q-48 -140 -266.5 -381.5t-643.5 -501.5q-295 -146 -474 -136t-248 124.5t-55.5 317t243 529.5t608.5 545q-209 -35 -395 -25t-186 163.5t278 327.5t440 168t237 -86.5zM1073 1370q31 0 38 -32q4 -12 4 -15q-7 -41 -34 -41h-3q-35 0 -47 47v7q0 34 42 34zM891 1364
q31 0 38 -32q4 -12 4 -15q-7 -41 -34 -41h-3q-35 0 -47 47v7q0 34 42 34z" />
    <glyph glyph-name="Igrave" unicode="&#xcc;" horiz-adv-x="950" 
d="M476 1456h16q24 -14 24 -36v-40q0 -50 -132 -570.5t-156 -885.5q-10 -323 42.5 -407.5t108 -80t112.5 62.5t131 191t170.5 342l132.5 284l25 10l-139.5 -322.5t-179.5 -360.5t-201 -238.5t-179.5 4.5t-117.5 243.5t0 477t104 577t199 669.5v4q-72 -26 -186.5 -180.5
t-145.5 -259.5q-40 -137 -44 -248q4 -26 4 -52v-24h-4q-14 0 -20 44q-40 407 300 712q114 84 136 84zM432 1628q36 0 88 -84v-12q0 -8 -8 -8h-20q-100 43 -100 68v8q10 28 40 28z" />
    <glyph glyph-name="Iacute" unicode="&#xcd;" horiz-adv-x="950" 
d="M476 1456h16q24 -14 24 -36v-40q0 -50 -132 -570.5t-156 -885.5q-10 -323 42.5 -407.5t108 -80t112.5 62.5t131 191t170.5 342l132.5 284l25 10l-139.5 -322.5t-179.5 -360.5t-201 -238.5t-179.5 4.5t-117.5 243.5t0 477t104 577t199 669.5v4q-72 -26 -186.5 -180.5
t-145.5 -259.5q-40 -137 -44 -248q4 -26 4 -52v-24h-4q-14 0 -20 44q-40 407 300 712q114 84 136 84zM556 1580v-8q0 -25 -100 -68h-20q-8 0 -8 8v12q52 84 88 84q30 0 40 -28z" />
    <glyph glyph-name="Icircumflex" unicode="&#xce;" horiz-adv-x="950" 
d="M476 1456h16q24 -14 24 -36v-40q0 -50 -132 -570.5t-156 -885.5q-10 -323 42.5 -407.5t108 -80t112.5 62.5t131 191t170.5 342l132.5 284l25 10l-139.5 -322.5t-179.5 -360.5t-201 -238.5t-179.5 4.5t-117.5 243.5t0 477t104 577t199 669.5v4q-72 -26 -186.5 -180.5
t-145.5 -259.5q-40 -137 -44 -248q4 -26 4 -52v-24h-4q-14 0 -20 44q-40 407 300 712q114 84 136 84zM484 1612q12 0 93 -82v-12q0 -8 -8 -8h-8q-24 0 -69 50h-4q-46 -46 -69 -50h-16q-8 0 -8 8v12z" />
    <glyph glyph-name="Idieresis" unicode="&#xcf;" horiz-adv-x="950" 
d="M476 1456h16q24 -14 24 -36v-40q0 -50 -132 -570.5t-156 -885.5q-10 -323 42.5 -407.5t108 -80t112.5 62.5t131 191t170.5 342l132.5 284l25 10l-139.5 -322.5t-179.5 -360.5t-201 -238.5t-179.5 4.5t-117.5 243.5t0 477t104 577t199 669.5v4q-72 -26 -186.5 -180.5
t-145.5 -259.5q-40 -137 -44 -248q4 -26 4 -52v-24h-4q-14 0 -20 44q-40 407 300 712q114 84 136 84zM561 1598q31 0 38 -32q4 -12 4 -15q-7 -41 -34 -41h-3q-35 0 -47 47v7q0 34 42 34zM379 1592q31 0 38 -32q4 -12 4 -15q-7 -41 -34 -41h-3q-35 0 -47 47v7q0 34 42 34z
" />
    <glyph glyph-name="Ntilde" unicode="&#xd1;" horiz-adv-x="1678" 
d="M1278.5 281q143.5 -1183 363.5 21l36 14q-109 -707 -254 -704.5t-197.5 301l-161 904.5t-242 575.5t-251 -239t-168.5 -489t-222 -1487.5q-44 -42 -62 -48h-13q-66 -2 -86.5 584.5t-20.5 893t8 491.5q9 0 9 9q76 31 104 -42q0 -251 8 -868.5t13 -851.5q26 68 122 813
t247.5 1022.5t387.5 280.5t379.5 -1180zM1056 1638q-15 -37 -40.5 -64t-53.5 -36t-105 23.5t-98 32.5h-3q-44 0 -82 -41q-10 -14 -15 -5q4 27 37.5 54t65 35t95.5 -25.5t106 -26.5q41 0 79 48q3 8 8 12.5t6 -7.5z" />
    <glyph glyph-name="Ograve" unicode="&#xd2;" horiz-adv-x="2678" 
d="M1642 1071.5q283 -191.5 434.5 -389t219.5 -380t80 -297.5q141 83 287 319l15 -7l-15 -29q-60 -129 -208 -266l-77 -62q-30 -319 -285 -531.5t-533 -297t-622.5 -36t-512.5 537.5q-168 126 -296.5 379t-63 598t333.5 530t614 154t629 -222.5zM181 28.5
q74 -190.5 223 -331.5q-60 406 50 699.5t264.5 432.5t290.5 166t214 10q90 -21 90 -90q4 -2 4 -31h-7q-7 0 -42 55q-62 68 -239.5 29t-343 -287.5t-189.5 -577t21 -470.5q186 -124 718 -86t1098 425l10 21q-100 570 -532 914t-821.5 356t-606.5 -212.5t-246.5 -528
t44.5 -494zM537 -422q68 -211 209 -346t517 -119t717.5 259t357.5 564q-284 -195 -602 -307.5t-659 -121.5t-540 71zM1256 1492q36 0 88 -84v-12q0 -8 -8 -8h-20q-100 43 -100 68v8q10 28 40 28z" />
    <glyph glyph-name="Oacute" unicode="&#xd3;" horiz-adv-x="2678" 
d="M1642 1071.5q283 -191.5 434.5 -389t219.5 -380t80 -297.5q141 83 287 319l15 -7l-15 -29q-60 -129 -208 -266l-77 -62q-30 -319 -285 -531.5t-533 -297t-622.5 -36t-512.5 537.5q-168 126 -296.5 379t-63 598t333.5 530t614 154t629 -222.5zM181 28.5
q74 -190.5 223 -331.5q-60 406 50 699.5t264.5 432.5t290.5 166t214 10q90 -21 90 -90q4 -2 4 -31h-7q-7 0 -42 55q-62 68 -239.5 29t-343 -287.5t-189.5 -577t21 -470.5q186 -124 718 -86t1098 425l10 21q-100 570 -532 914t-821.5 356t-606.5 -212.5t-246.5 -528
t44.5 -494zM537 -422q68 -211 209 -346t517 -119t717.5 259t357.5 564q-284 -195 -602 -307.5t-659 -121.5t-540 71zM1292 1488v-8q0 -25 -100 -68h-20q-8 0 -8 8v12q52 84 88 84q30 0 40 -28z" />
    <glyph glyph-name="Ocircumflex" unicode="&#xd4;" horiz-adv-x="2678" 
d="M1642 1071.5q283 -191.5 434.5 -389t219.5 -380t80 -297.5q141 83 287 319l15 -7l-15 -29q-60 -129 -208 -266l-77 -62q-30 -319 -285 -531.5t-533 -297t-622.5 -36t-512.5 537.5q-168 126 -296.5 379t-63 598t333.5 530t614 154t629 -222.5zM181 28.5
q74 -190.5 223 -331.5q-60 406 50 699.5t264.5 432.5t290.5 166t214 10q90 -21 90 -90q4 -2 4 -31h-7q-7 0 -42 55q-62 68 -239.5 29t-343 -287.5t-189.5 -577t21 -470.5q186 -124 718 -86t1098 425l10 21q-100 570 -532 914t-821.5 356t-606.5 -212.5t-246.5 -528
t44.5 -494zM537 -422q68 -211 209 -346t517 -119t717.5 259t357.5 564q-284 -195 -602 -307.5t-659 -121.5t-540 71zM1212 1504q12 0 93 -82v-12q0 -8 -8 -8h-8q-24 0 -69 50h-4q-46 -46 -69 -50h-16q-8 0 -8 8v12z" />
    <glyph glyph-name="Otilde" unicode="&#xd5;" horiz-adv-x="2678" 
d="M1642 1071.5q283 -191.5 434.5 -389t219.5 -380t80 -297.5q141 83 287 319l15 -7l-15 -29q-60 -129 -208 -266l-77 -62q-30 -319 -285 -531.5t-533 -297t-622.5 -36t-512.5 537.5q-168 126 -296.5 379t-63 598t333.5 530t614 154t629 -222.5zM181 28.5
q74 -190.5 223 -331.5q-60 406 50 699.5t264.5 432.5t290.5 166t214 10q90 -21 90 -90q4 -2 4 -31h-7q-7 0 -42 55q-62 68 -239.5 29t-343 -287.5t-189.5 -577t21 -470.5q186 -124 718 -86t1098 425l10 21q-100 570 -532 914t-821.5 356t-606.5 -212.5t-246.5 -528
t44.5 -494zM537 -422q68 -211 209 -346t517 -119t717.5 259t357.5 564q-284 -195 -602 -307.5t-659 -121.5t-540 71zM1356 1510q-15 -37 -40.5 -64t-53.5 -36t-105 23.5t-98 32.5h-3q-44 0 -82 -41q-10 -14 -15 -5q4 27 37.5 54t65 35t95.5 -25.5t106 -26.5q41 0 79 48
q3 8 8 12.5t6 -7.5z" />
    <glyph glyph-name="Odieresis" unicode="&#xd6;" horiz-adv-x="2678" 
d="M1642 1071.5q283 -191.5 434.5 -389t219.5 -380t80 -297.5q141 83 287 319l15 -7l-15 -29q-60 -129 -208 -266l-77 -62q-30 -319 -285 -531.5t-533 -297t-622.5 -36t-512.5 537.5q-168 126 -296.5 379t-63 598t333.5 530t614 154t629 -222.5zM181 28.5
q74 -190.5 223 -331.5q-60 406 50 699.5t264.5 432.5t290.5 166t214 10q90 -21 90 -90q4 -2 4 -31h-7q-7 0 -42 55q-62 68 -239.5 29t-343 -287.5t-189.5 -577t21 -470.5q186 -124 718 -86t1098 425l10 21q-100 570 -532 914t-821.5 356t-606.5 -212.5t-246.5 -528
t44.5 -494zM537 -422q68 -211 209 -346t517 -119t717.5 259t357.5 564q-284 -195 -602 -307.5t-659 -121.5t-540 71zM1245 1446q31 0 38 -32q4 -12 4 -15q-7 -41 -34 -41h-3q-35 0 -47 47v7q0 34 42 34zM1063 1440q31 0 38 -32q4 -12 4 -15q-7 -41 -34 -41h-3q-35 0 -47 47
v7q0 34 42 34z" />
    <glyph glyph-name="Ugrave" unicode="&#xd9;" horiz-adv-x="1970" 
d="M320 1571q60 -25 64 -102q-76 -216 -122 -430.5t-93 -583t-26 -649t138.5 -427.5t298 -92t361 282.5t329.5 700.5t204 771t94 300q58 -30 40 -128.5l-83 -456t-83 -610t35 -394t168 5.5t305 571l20 -4q-154 -356 -252.5 -549t-179.5 -221t-128.5 50.5t-62.5 217t4 341
t83 604t79.5 368.5t-60 -424t-236.5 -740t-298.5 -495t-251.5 -201.5t-227 -55.5h-8q-117 0 -219.5 118.5t-157.5 380t-5 731.5t147.5 795.5t122.5 325.5zM984 1744q36 0 88 -84v-12q0 -8 -8 -8h-20q-100 43 -100 68v8q10 28 40 28z" />
    <glyph glyph-name="Uacute" unicode="&#xda;" horiz-adv-x="1970" 
d="M320 1571q60 -25 64 -102q-76 -216 -122 -430.5t-93 -583t-26 -649t138.5 -427.5t298 -92t361 282.5t329.5 700.5t204 771t94 300q58 -30 40 -128.5l-83 -456t-83 -610t35 -394t168 5.5t305 571l20 -4q-154 -356 -252.5 -549t-179.5 -221t-128.5 50.5t-62.5 217t4 341
t83 604t79.5 368.5t-60 -424t-236.5 -740t-298.5 -495t-251.5 -201.5t-227 -55.5h-8q-117 0 -219.5 118.5t-157.5 380t-5 731.5t147.5 795.5t122.5 325.5zM1112 1692v-8q0 -25 -100 -68h-20q-8 0 -8 8v12q52 84 88 84q30 0 40 -28z" />
    <glyph glyph-name="Ucircumflex" unicode="&#xdb;" horiz-adv-x="1970" 
d="M320 1571q60 -25 64 -102q-76 -216 -122 -430.5t-93 -583t-26 -649t138.5 -427.5t298 -92t361 282.5t329.5 700.5t204 771t94 300q58 -30 40 -128.5l-83 -456t-83 -610t35 -394t168 5.5t305 571l20 -4q-154 -356 -252.5 -549t-179.5 -221t-128.5 50.5t-62.5 217t4 341
t83 604t79.5 368.5t-60 -424t-236.5 -740t-298.5 -495t-251.5 -201.5t-227 -55.5h-8q-117 0 -219.5 118.5t-157.5 380t-5 731.5t147.5 795.5t122.5 325.5zM1004 1720q12 0 93 -82v-12q0 -8 -8 -8h-8q-24 0 -69 50h-4q-46 -46 -69 -50h-16q-8 0 -8 8v12z" />
    <glyph glyph-name="Udieresis" unicode="&#xdc;" horiz-adv-x="1970" 
d="M320 1571q60 -25 64 -102q-76 -216 -122 -430.5t-93 -583t-26 -649t138.5 -427.5t298 -92t361 282.5t329.5 700.5t204 771t94 300q58 -30 40 -128.5l-83 -456t-83 -610t35 -394t168 5.5t305 571l20 -4q-154 -356 -252.5 -549t-179.5 -221t-128.5 50.5t-62.5 217t4 341
t83 604t79.5 368.5t-60 -424t-236.5 -740t-298.5 -495t-251.5 -201.5t-227 -55.5h-8q-117 0 -219.5 118.5t-157.5 380t-5 731.5t147.5 795.5t122.5 325.5zM1117 1678q31 0 38 -32q4 -12 4 -15q-7 -41 -34 -41h-3q-35 0 -47 47v7q0 34 42 34zM935 1672q31 0 38 -32
q4 -12 4 -15q-7 -41 -34 -41h-3q-35 0 -47 47v7q0 34 42 34z" />
    <glyph glyph-name="Yacute" unicode="&#xdd;" horiz-adv-x="1782" 
d="M484 1441l48 -50q2 -37 -52 -130q-324 -593 -349 -961t89.5 -490.5t253 -77t252 239.5t176.5 384t132 373q121 254 224 236q45 4 80.5 -150.5t53.5 -406t24 -325t8 -104.5q179 127 342 348q8 4 12 4l4 -8q-100 -179 -350 -390q2 -221 2 -266t-1 -108t-20 -225
t-102.5 -336t-137.5 -214.5t-94 -29.5t-78.5 73t-43 233.5t39.5 321t99.5 248.5t89.5 138.5t112 110.5q-33 639 -44.5 762.5t-43.5 255.5h-12q-65 -27 -170.5 -308.5t-185.5 -471t-188.5 -312t-253 -128.5t-272.5 133t-105 510.5t461 1120.5zM1063 -1203q43 -24 86 17.5
t100 230t53 500.5l8 286q-127 -114 -190 -237.5t-100.5 -275t-18.5 -324.5t62 -197zM1016 1388v-8q0 -25 -100 -68h-20q-8 0 -8 8v12q52 84 88 84q30 0 40 -28z" />
    <glyph glyph-name="agrave" unicode="&#xe0;" horiz-adv-x="941" 
d="M617 434q32 -15 11 -146q-22 -251 15.5 -318t68.5 -30t111.5 198t88.5 178q25 12 29 11q-184 -393 -218 -429t-79 -28.5t-70.5 33t-41.5 110t3 353.5q-241 -345 -360.5 -376.5t-147 58t12 225.5t236.5 229t281 56.5t67 -64.5q-59 33 -170 21.5t-225.5 -121t-102.5 -264
t145 -40.5t237 305q26 39 58 51l32 -1zM440 720q29 0 71 -68v-10q0 -6 -6 -6h-16q-81 35 -81 55v6q8 23 32 23z" />
    <glyph glyph-name="aacute" unicode="&#xe1;" horiz-adv-x="941" 
d="M617 434q32 -15 11 -146q-22 -251 15.5 -318t68.5 -30t111.5 198t88.5 178q25 12 29 11q-184 -393 -218 -429t-79 -28.5t-70.5 33t-41.5 110t3 353.5q-241 -345 -360.5 -376.5t-147 58t12 225.5t236.5 229t281 56.5t67 -64.5q-59 33 -170 21.5t-225.5 -121t-102.5 -264
t145 -40.5t237 305q26 39 58 51l32 -1zM479 720q-29 0 -71 -68v-10q0 -6 6 -6h16q81 35 81 55v6q-8 23 -32 23z" />
    <glyph glyph-name="acircumflex" unicode="&#xe2;" horiz-adv-x="941" 
d="M617 434q32 -15 11 -146q-22 -251 15.5 -318t68.5 -30t111.5 198t88.5 178q25 12 29 11q-184 -393 -218 -429t-79 -28.5t-70.5 33t-41.5 110t3 353.5q-241 -345 -360.5 -376.5t-147 58t12 225.5t236.5 229t281 56.5t67 -64.5q-59 33 -170 21.5t-225.5 -121t-102.5 -264
t145 -40.5t237 305q26 39 58 51l32 -1zM468 737q9 0 72 -63v-10q0 -6 -6 -6h-7q-18 0 -53 39h-3q-36 -36 -53 -39h-13q-6 0 -6 6v10z" />
    <glyph glyph-name="atilde" unicode="&#xe3;" horiz-adv-x="941" 
d="M617 434q32 -15 11 -146q-22 -251 15.5 -318t68.5 -30t111.5 198t88.5 178q25 12 29 11q-184 -393 -218 -429t-79 -28.5t-70.5 33t-41.5 110t3 353.5q-241 -345 -360.5 -376.5t-147 58t12 225.5t236.5 229t281 56.5t67 -64.5q-59 33 -170 21.5t-225.5 -121t-102.5 -264
t145 -40.5t237 305q26 39 58 51l32 -1zM643 721q-9 -24 -25.5 -41t-34.5 -22.5t-67 15t-63 20.5h-2q-28 0 -52 -26q-6 -9 -10 -4q3 18 24.5 35.5t41.5 22.5t61 -17t68 -17q26 0 51 31q1 5 4 8t4 -5z" />
    <glyph glyph-name="adieresis" unicode="&#xe4;" horiz-adv-x="941" 
d="M617 434q32 -15 11 -146q-22 -251 15.5 -318t68.5 -30t111.5 198t88.5 178q25 12 29 11q-184 -393 -218 -429t-79 -28.5t-70.5 33t-41.5 110t3 353.5q-241 -345 -360.5 -376.5t-147 58t12 225.5t236.5 229t281 56.5t67 -64.5q-59 33 -170 21.5t-225.5 -121t-102.5 -264
t145 -40.5t237 305q26 39 58 51l32 -1zM590 686q21 0 25 -21q3 -8 3 -10q-5 -28 -22 -28h-3q-23 0 -31 31v5q0 23 28 23zM469 682q21 0 25 -21q3 -8 3 -10q-5 -28 -22 -28h-3q-23 0 -31 31v5q0 23 28 23z" />
    <glyph glyph-name="aring" unicode="&#xe5;" horiz-adv-x="941" 
d="M617 434q32 -15 11 -146q-22 -251 15.5 -318t68.5 -30t111.5 198t88.5 178q25 12 29 11q-184 -393 -218 -429t-79 -28.5t-70.5 33t-41.5 110t3 353.5q-241 -345 -360.5 -376.5t-147 58t12 225.5t236.5 229t281 56.5t67 -64.5q-59 33 -170 21.5t-225.5 -121t-102.5 -264
t145 -40.5t237 305q26 39 58 51l32 -1zM516 733q14 -12 14 -35q0 -22 -13 -35q-13 -12 -34 -13q-19 1 -28 14t-9 32q0 20 10 33t26 15q20 2 34 -11zM439 739q-17 -17 -17 -42t17 -42t42 -17q22 -1 40 14q19 16 19 45q0 27 -17 43t-42 16q-24 0 -42 -17z" />
    <glyph glyph-name="ccedilla" unicode="&#xe7;" horiz-adv-x="707" 
d="M335 552q96 -61 55 -113l-15 -6q-28 121 -89 80q-111 -64 -141.5 -197.5t-19 -258t97.5 -191t199 26.5t248 410q5 11 9 18l28 10q-31 -88 -130 -278t-217.5 -247.5t-230 10.5t-129.5 287q12 318 226 423q49 30 109 26zM280 -206q-29 -18 -36 -41q73 9 67.5 -47.5
t-89.5 -52.5q-50 8 -51.5 24.5t47.5 -3.5q60 -7 60 30t-67 32l31 58h38z" />
    <glyph glyph-name="egrave" unicode="&#xe8;" horiz-adv-x="588" 
d="M312 594.5q25 -55.5 -52 -173.5t-140 -176q1 -106 45.5 -240t76 -133.5t97.5 63t131.5 192.5t88.5 188l29 15q-122 -315 -252 -443t-238 20q-60 121 -82 261q-16 106 35 263q82 178 159 198.5t102 -35zM119 294l59 65q106 144 87 209.5t-74 0.5q-65 -126 -70 -207z
M212 784q29 0 71 -68v-10q0 -6 -6 -6h-16q-81 35 -81 55v6q8 23 32 23z" />
    <glyph glyph-name="eacute" unicode="&#xe9;" horiz-adv-x="588" 
d="M312 594.5q25 -55.5 -52 -173.5t-140 -176q1 -106 45.5 -240t76 -133.5t97.5 63t131.5 192.5t88.5 188l29 15q-122 -315 -252 -443t-238 20q-60 121 -82 261q-16 106 35 263q82 178 159 198.5t102 -35zM119 294l59 65q106 144 87 209.5t-74 0.5q-65 -126 -70 -207z
M263 776q-29 0 -71 -68v-10q0 -6 6 -6h16q81 35 81 55v6q-8 23 -32 23z" />
    <glyph glyph-name="ecircumflex" unicode="&#xea;" horiz-adv-x="588" 
d="M312 594.5q25 -55.5 -52 -173.5t-140 -176q1 -106 45.5 -240t76 -133.5t97.5 63t131.5 192.5t88.5 188l29 15q-122 -315 -252 -443t-238 20q-60 121 -82 261q-16 106 35 263q82 178 159 198.5t102 -35zM119 294l59 65q106 144 87 209.5t-74 0.5q-65 -126 -70 -207z
M236 793q9 0 72 -63v-10q0 -6 -6 -6h-7q-18 0 -53 39h-3q-36 -36 -53 -39h-13q-6 0 -6 6v10z" />
    <glyph glyph-name="edieresis" unicode="&#xeb;" horiz-adv-x="588" 
d="M312 594.5q25 -55.5 -52 -173.5t-140 -176q1 -106 45.5 -240t76 -133.5t97.5 63t131.5 192.5t88.5 188l29 15q-122 -315 -252 -443t-238 20q-60 121 -82 261q-16 106 35 263q82 178 159 198.5t102 -35zM119 294l59 65q106 144 87 209.5t-74 0.5q-65 -126 -70 -207z
M290 734q21 0 25 -21q3 -8 3 -10q-5 -28 -22 -28h-3q-23 0 -31 31v5q0 23 28 23zM169 730q21 0 25 -21q3 -8 3 -10q-5 -28 -22 -28h-3q-23 0 -31 31v5q0 23 28 23z" />
    <glyph glyph-name="igrave" unicode="&#xec;" horiz-adv-x="461" 
d="M112 480l10 -36l4 -28q-18 -156 -19 -219.5t3 -158t45.5 -120.5t102.5 62q141 285 172 333l31 16q-191 -391 -209 -407q-122 -172 -222 28q-20 78 -24 107t-2 111q-4 232 18 298q45 24 90 14zM60 696q29 0 71 -68v-10q0 -6 -6 -6h-16q-81 35 -81 55v6q8 23 32 23z" />
    <glyph glyph-name="iacute" unicode="&#xed;" horiz-adv-x="461" 
d="M112 480l10 -36l4 -28q-18 -156 -19 -219.5t3 -158t45.5 -120.5t102.5 62q141 285 172 333l31 16q-191 -391 -209 -407q-122 -172 -222 28q-20 78 -24 107t-2 111q-4 232 18 298q45 24 90 14zM107 676q-29 0 -71 -68v-10q0 -6 6 -6h16q81 35 81 55v6q-8 23 -32 23z" />
    <glyph glyph-name="icircumflex" unicode="&#xee;" horiz-adv-x="461" 
d="M112 480l10 -36l4 -28q-18 -156 -19 -219.5t3 -158t45.5 -120.5t102.5 62q141 285 172 333l31 16q-191 -391 -209 -407q-122 -172 -222 28q-20 78 -24 107t-2 111q-4 232 18 298q45 24 90 14zM80 685q9 0 72 -63v-10q0 -6 -6 -6h-7q-18 0 -53 39h-3q-36 -36 -53 -39h-13
q-6 0 -6 6v10z" />
    <glyph glyph-name="idieresis" unicode="&#xef;" horiz-adv-x="464" 
d="M115 480l10 -36l4 -28q-18 -156 -19 -219.5t3 -158t45.5 -120.5t102.5 62q141 285 172 333l31 16q-191 -391 -209 -407q-122 -172 -222 28q-20 78 -24 107t-2 111q-4 232 18 298q45 24 90 14zM149 638q21 0 25 -21q3 -8 3 -10q-5 -28 -22 -28h-3q-23 0 -31 31v5
q0 23 28 23zM28 634q21 0 25 -21q3 -8 3 -10q-5 -28 -22 -28h-3q-23 0 -31 31v5q0 23 28 23z" />
    <glyph glyph-name="ntilde" unicode="&#xf1;" horiz-adv-x="944" 
d="M566.5 209q29.5 -193 51.5 -219.5t52.5 -4.5t101.5 123l140 206l32 15q-245 -402 -301 -433.5t-82.5 -7t-45.5 73.5t-51 268l-12 98q-11 60 -28 48q-54 -51 -84 -124l-143.5 -364.5t-130.5 -119.5q-46 51 -58 568q-8 112 2 230l64 30q42 4 42 -176q-4 -115 -2 -190
q-18 -530 68.5 -292.5t130.5 324.5q93 190 158.5 165t95 -218zM567 613q-9 -24 -25.5 -41t-34.5 -22.5t-67 15t-63 20.5h-2q-28 0 -52 -26q-6 -9 -10 -4q3 18 24.5 35.5t41.5 22.5t61 -17t68 -17q26 0 51 31q1 5 4 8t4 -5z" />
    <glyph glyph-name="ograve" unicode="&#xf2;" horiz-adv-x="755" 
d="M498 267l4 -54q-2 -123 -42 -185q168 93 264 286l31 15q-51 -111 -101.5 -169.5t-106.5 -103.5t-104 -60q-91 -137 -185 -153t-162.5 41t-82 188t72.5 237v27q4 116 81.5 163.5t192.5 -27t138 -205.5zM180 352q89 36 124.5 26t45.5 -32v-4q-46 33 -92.5 11.5t-74.5 -58.5
q1 -105 60 -197t179 -77q46 64 30 196q-37 182 -137 245t-134 -83zM115 184q-24 -93 13.5 -190.5t108.5 -115.5t169 116q-152 -16 -212.5 51t-78.5 139zM212 692q29 0 71 -68v-10q0 -6 -6 -6h-16q-81 35 -81 55v6q8 23 32 23z" />
    <glyph glyph-name="oacute" unicode="&#xf3;" horiz-adv-x="755" 
d="M498 267l4 -54q-2 -123 -42 -185q168 93 264 286l31 15q-51 -111 -101.5 -169.5t-106.5 -103.5t-104 -60q-91 -137 -185 -153t-162.5 41t-82 188t72.5 237v27q4 116 81.5 163.5t192.5 -27t138 -205.5zM180 352q89 36 124.5 26t45.5 -32v-4q-46 33 -92.5 11.5t-74.5 -58.5
q1 -105 60 -197t179 -77q46 64 30 196q-37 182 -137 245t-134 -83zM115 184q-24 -93 13.5 -190.5t108.5 -115.5t169 116q-152 -16 -212.5 51t-78.5 139zM315 688q-29 0 -71 -68v-10q0 -6 6 -6h16q81 35 81 55v6q-8 23 -32 23z" />
    <glyph glyph-name="ocircumflex" unicode="&#xf4;" horiz-adv-x="755" 
d="M498 267l4 -54q-2 -123 -42 -185q168 93 264 286l31 15q-51 -111 -101.5 -169.5t-106.5 -103.5t-104 -60q-91 -137 -185 -153t-162.5 41t-82 188t72.5 237v27q4 116 81.5 163.5t192.5 -27t138 -205.5zM180 352q89 36 124.5 26t45.5 -32v-4q-46 33 -92.5 11.5t-74.5 -58.5
q1 -105 60 -197t179 -77q46 64 30 196q-37 182 -137 245t-134 -83zM115 184q-24 -93 13.5 -190.5t108.5 -115.5t169 116q-152 -16 -212.5 51t-78.5 139zM240 705q9 0 72 -63v-10q0 -6 -6 -6h-7q-18 0 -53 39h-3q-36 -36 -53 -39h-13q-6 0 -6 6v10z" />
    <glyph glyph-name="otilde" unicode="&#xf5;" horiz-adv-x="755" 
d="M498 267l4 -54q-2 -123 -42 -185q168 93 264 286l31 15q-51 -111 -101.5 -169.5t-106.5 -103.5t-104 -60q-91 -137 -185 -153t-162.5 41t-82 188t72.5 237v27q4 116 81.5 163.5t192.5 -27t138 -205.5zM180 352q89 36 124.5 26t45.5 -32v-4q-46 33 -92.5 11.5t-74.5 -58.5
q1 -105 60 -197t179 -77q46 64 30 196q-37 182 -137 245t-134 -83zM115 184q-24 -93 13.5 -190.5t108.5 -115.5t169 116q-152 -16 -212.5 51t-78.5 139zM411 669q-9 -24 -25.5 -41t-34.5 -22.5t-67 15t-63 20.5h-2q-28 0 -52 -26q-6 -9 -10 -4q3 18 24.5 35.5t41.5 22.5
t61 -17t68 -17q26 0 51 31q1 5 4 8t4 -5z" />
    <glyph glyph-name="odieresis" unicode="&#xf6;" horiz-adv-x="755" 
d="M498 267l4 -54q-2 -123 -42 -185q168 93 264 286l31 15q-51 -111 -101.5 -169.5t-106.5 -103.5t-104 -60q-91 -137 -185 -153t-162.5 41t-82 188t72.5 237v27q4 116 81.5 163.5t192.5 -27t138 -205.5zM180 352q89 36 124.5 26t45.5 -32v-4q-46 33 -92.5 11.5t-74.5 -58.5
q1 -105 60 -197t179 -77q46 64 30 196q-37 182 -137 245t-134 -83zM115 184q-24 -93 13.5 -190.5t108.5 -115.5t169 116q-152 -16 -212.5 51t-78.5 139zM330 666q21 0 25 -21q3 -8 3 -10q-5 -28 -22 -28h-3q-23 0 -31 31v5q0 23 28 23zM209 662q21 0 25 -21q3 -8 3 -10
q-5 -28 -22 -28h-3q-23 0 -31 31v5q0 23 28 23z" />
    <glyph glyph-name="ugrave" unicode="&#xf9;" horiz-adv-x="851" 
d="M100 457l17 -19l-6 -50q-7 -48 -15 -127q-23 -209 6 -326q18 -56 82 20q64 78 177 446q51 100 108 90l14 -22q2 34 -19 -335q23 -299 94 -284l26 7q70 63 130 187q33 57 107 267l22 21q8 -1 8 -8q-154 -465 -307 -558q-84 4 -155 153q-31 97 -31 157l-4 69
q-36 -119 -92 -209q-54 -71 -110 -73q-152 -23 -135 327q9 258 57 258zM224 668q29 0 71 -68v-10q0 -6 -6 -6h-16q-81 35 -81 55v6q8 23 32 23z" />
    <glyph glyph-name="uacute" unicode="&#xfa;" horiz-adv-x="851" 
d="M100 457l17 -19l-6 -50q-7 -48 -15 -127q-23 -209 6 -326q18 -56 82 20q64 78 177 446q51 100 108 90l14 -22q2 34 -19 -335q23 -299 94 -284l26 7q70 63 130 187q33 57 107 267l22 21q8 -1 8 -8q-154 -465 -307 -558q-84 4 -155 153q-31 97 -31 157l-4 69
q-36 -119 -92 -209q-54 -71 -110 -73q-152 -23 -135 327q9 258 57 258zM283 660q-29 0 -71 -68v-10q0 -6 6 -6h16q81 35 81 55v6q-8 23 -32 23z" />
    <glyph glyph-name="ucircumflex" unicode="&#xfb;" horiz-adv-x="851" 
d="M100 457l17 -19l-6 -50q-7 -48 -15 -127q-23 -209 6 -326q18 -56 82 20q64 78 177 446q51 100 108 90l14 -22q2 34 -19 -335q23 -299 94 -284l26 7q70 63 130 187q33 57 107 267l22 21q8 -1 8 -8q-154 -465 -307 -558q-84 4 -155 153q-31 97 -31 157l-4 69
q-36 -119 -92 -209q-54 -71 -110 -73q-152 -23 -135 327q9 258 57 258zM240 661q9 0 72 -63v-10q0 -6 -6 -6h-7q-18 0 -53 39h-3q-36 -36 -53 -39h-13q-6 0 -6 6v10z" />
    <glyph glyph-name="udieresis" unicode="&#xfc;" horiz-adv-x="851" 
d="M100 457l17 -19l-6 -50q-7 -48 -15 -127q-23 -209 6 -326q18 -56 82 20q64 78 177 446q51 100 108 90l14 -22q2 34 -19 -335q23 -299 94 -284l26 7q70 63 130 187q33 57 107 267l22 21q8 -1 8 -8q-154 -465 -307 -558q-84 4 -155 153q-31 97 -31 157l-4 69
q-36 -119 -92 -209q-54 -71 -110 -73q-152 -23 -135 327q9 258 57 258zM306 626q21 0 25 -21q3 -8 3 -10q-5 -28 -22 -28h-3q-23 0 -31 31v5q0 23 28 23zM185 622q21 0 25 -21q3 -8 3 -10q-5 -28 -22 -28h-3q-23 0 -31 31v5q0 23 28 23z" />
    <glyph glyph-name="yacute" unicode="&#xfd;" horiz-adv-x="972" 
d="M112 488q6 -89 -4 -144t-16.5 -150.5t40.5 -109.5q105 -10 294 232q49 74 80 94q82 16 108 -88q-22 -118 -30 -254q259 125 344 240l44 24q-76 -158 -396 -306q-80 -821 -202.5 -943.5t-211 -7.5t-73.5 285.5t129.5 380.5t279.5 301q18 114 30 231.5t-38 70.5
q-60 -104 -152 -202q-159 -144 -234 -104q-100 48 -104 170q4 166 30 306q44 28 82 -26zM498 0q-206 -123 -304 -371t-49 -420.5t141 -112.5t192 748zM343 652q-29 0 -71 -68v-10q0 -6 6 -6h16q81 35 81 55v6q-8 23 -32 23z" />
    <glyph glyph-name="ydieresis" unicode="&#xff;" horiz-adv-x="972" 
d="M112 488q6 -89 -4 -144t-16.5 -150.5t40.5 -109.5q105 -10 294 232q49 74 80 94q82 16 108 -88q-22 -118 -30 -254q259 125 344 240l44 24q-76 -158 -396 -306q-80 -821 -202.5 -943.5t-211 -7.5t-73.5 285.5t129.5 380.5t279.5 301q18 114 30 231.5t-38 70.5
q-60 -104 -152 -202q-159 -144 -234 -104q-100 48 -104 170q4 166 30 306q44 28 82 -26zM498 0q-206 -123 -304 -371t-49 -420.5t141 -112.5t192 748zM374 530q21 0 25 -21q3 -8 3 -10q-5 -28 -22 -28h-3q-23 0 -31 31v5q0 23 28 23zM253 526q21 0 25 -21q3 -8 3 -10
q-5 -28 -22 -28h-3q-23 0 -31 31v5q0 23 28 23z" />
    <glyph glyph-name="Ydieresis" unicode="&#x178;" horiz-adv-x="1782" 
d="M484 1441l48 -50q2 -37 -52 -130q-324 -593 -349 -961t89.5 -490.5t253 -77t252 239.5t176.5 384t132 373q121 254 224 236q45 4 80.5 -150.5t53.5 -406t24 -325t8 -104.5q179 127 342 348q8 4 12 4l4 -8q-100 -179 -350 -390q2 -221 2 -266t-1 -108t-20 -225
t-102.5 -336t-137.5 -214.5t-94 -29.5t-78.5 73t-43 233.5t39.5 321t99.5 248.5t89.5 138.5t112 110.5q-33 639 -44.5 762.5t-43.5 255.5h-12q-65 -27 -170.5 -308.5t-185.5 -471t-188.5 -312t-253 -128.5t-272.5 133t-105 510.5t461 1120.5zM1063 -1203q43 -24 86 17.5
t100 230t53 500.5l8 286q-127 -114 -190 -237.5t-100.5 -275t-18.5 -324.5t62 -197zM1009 1366q31 0 38 -32q4 -12 4 -15q-7 -41 -34 -41h-3q-35 0 -47 47v7q0 34 42 34zM827 1360q31 0 38 -32q4 -12 4 -15q-7 -41 -34 -41h-3q-35 0 -47 47v7q0 34 42 34z" />
    <glyph glyph-name="quoteleft" unicode="&#x2018;" horiz-adv-x="137" 
d="M65 1300h10q4 0 10 -10v-8q0 -4 -5 -41q0 -65 36 -80q21 -28 21 -44v-3q-6 -64 -54 -64h-21q-62 30 -62 124q21 89 57 121z" />
    <glyph glyph-name="quoteright" unicode="&#x2019;" horiz-adv-x="137" 
d="M54 1289h21q62 -30 62 -124q-3 -35 -44 -108q-17 -18 -21 -18h-10q-4 0 -10 10v8q5 37 5 41q0 65 -36 80q-21 28 -21 44v3q6 64 54 64z" />
    <glyph glyph-name="quotedblleft" unicode="&#x201c;" horiz-adv-x="524" 
d="M374 1318h10q4 0 10 -10v-8q-5 -37 -5 -41q0 -64 36 -79q20 -27 20 -43v-3q-6 -63 -54 -63h-20q-61 30 -61 122q20 88 56 120zM149 1315q19 0 21 -23q-8 -19 -8 -53q0 -38 41 -79q7 -14 7 -41q0 -41 -61 -51q-46 0 -66 92v25q0 53 56 125q4 0 10 5z" />
    <glyph glyph-name="quotedblright" unicode="&#x201d;" horiz-adv-x="524" 
d="M367 1324q47 0 67 -92v-26q0 -52 -57 -125q-3 0 -10 -5q-18 0 -20 23q7 20 7 54q0 37 -40 79q-8 13 -8 40q0 41 61 52zM125 1321h20q62 -30 62 -122q-3 -36 -44 -108q-17 -17 -20 -17h-10q-4 0 -11 10v7q0 4 6 41q0 65 -36 79q-20 28 -20 44v2q5 64 53 64z" />
    <glyph glyph-name="bullet" unicode="&#x2022;" horiz-adv-x="512" 
d="M144.5 498.5q50.5 48.5 112.5 48.5q82 7 114.5 -40t32.5 -108t-35 -108.5t-113 -39.5q-62 0 -103 31t-50 99.5t41.5 117z" />
    <glyph glyph-name="Euro" unicode="&#x20ac;" horiz-adv-x="1194" 
d="M692 955h12q316 -44 316 -272v-6q0 -13 -13 -13q-15 0 -56 152q-96 89 -228 89q-239 0 -366 -329q-19 -46 -26 -107q136 0 462 -13l6 -13q-23 -19 -44 -19h-139q-92 0 -285 -6v-120h304q54 0 170 -6l7 -13q0 -25 -443 -25l-31 -7q50 -360 354 -360h19q248 0 322 247h12
q13 -2 13 -13q-48 -158 -152 -221q-90 -57 -233 -57q-344 0 -430 379q0 38 -13 38h-113q-13 0 -13 13q0 21 126 25v126h-50q-76 0 -76 26q2 12 13 12h113q57 249 171 360q147 133 291 133z" />
    <glyph glyph-name="ff.dlg" unicode="&#xe003;" horiz-adv-x="1021" 
d="M152 1103q52 -12 58 -26l-62 -586q-24 -301 -24 -480v-72q2 -248 49 -488t155 -199t127 274.5t-224 594.5q-33 88 54 107t239 129q63 760 238 654q56 -46 51 -137t-51 -220.5t-132 -258.5q-12 -110 19 -450t88 -475t103 -83.5t58 219t-195 458.5q-35 67 42 98.5t131 64.5
t110 90l35 17q-48 -71 -140.5 -132.5t-150.5 -82.5q228 -370 187 -587t-123 -227q-90 -20 -152.5 123t-103.5 449q-22 305 -12 450q-144 -101 -260 -138q250 -450 218 -703.5t-197.5 -292t-224.5 233.5q-62 343 -50 700q0 274 90 968q28 8 50 8zM630 445q86 136 133 306
t2 221t-135 -527z" />
    <glyph glyph-name="ee.dlg" unicode="&#xe004;" horiz-adv-x="982" 
d="M296 617.5q16 -81.5 -55 -198t-107 -158.5q12 -206 86.5 -324t150.5 -51t121 179q-70 136 -68 288t60.5 227t105 59t72.5 -100.5t6 -192.5t-102 -257q102 -152 130 -163t58.5 7t73 94.5t116.5 279.5l38 22q-74 -196 -133.5 -324t-145 -130t-179.5 152
q-171 -296 -312.5 -198t-176.5 320t6.5 346t140 164t114.5 -41.5zM122 313q36 50 68.5 109t52 118t-10.5 86t-83 -70t-27 -243zM544 133q61 121 75.5 187.5t15.5 111.5t-28.5 117t-74 -25t-30.5 -214.5t42 -176.5z" />
    <glyph glyph-name="ll.dlg" unicode="&#xe005;" horiz-adv-x="999" 
d="M278 1240.5q19 -120.5 0 -287t-163 -671.5q40 -276 101.5 -339.5t111 -26.5t96.5 120.5t75 158.5q-62 152 -85 444.5t28.5 450t138 129t99.5 -262t-27.5 -430.5t-87.5 -320q79 -138 126 -141t94.5 37.5t116.5 128.5t68 83l29 15q-113 -167 -197.5 -256.5t-139.5 -75.5
t-129 149q-176 -366 -311 -303t-178.5 362t-31 558.5t54.5 430.5t117 169t94 -122.5zM104 344q133 477 141 668t-34 285t-90 -253t-17 -700zM481.5 661q4.5 -230 57.5 -417q39 89 85.5 353.5t-9 460.5t-97 14.5t-37 -411.5z" />
    <glyph glyph-name="oo.dlg" unicode="&#xe006;" horiz-adv-x="1441" 
d="M1043 -2l-4 -11q201 15 376 328q12 8 26 11q-148 -285 -336 -356q-59 -14 -82 -14q-94 -157 -189.5 -166.5t-149 52t-59.5 206.5t98 241l-4 24q-27 165 53 236t191 14.5t132 -240t-52 -325.5zM799 333q106 47 171 6l5 -12v-4q-32 9 -44 9h-14q-39 4 -103 -56
q31 -111 81.5 -187t117.5 -96q67 143 62 276q-11 192 -100 259t-144 1t-32 -196zM751 197q-31 -82 -6.5 -232t95.5 -148t152 138q-103 12 -154.5 78t-73.5 125zM154 355q-33 114 23.5 192t174 39t156.5 -216q15 -117 -5 -191q102 7 180.5 46.5t104.5 50.5
q-134 -121 -295 -139q-88 -283 -245 -320q-86 -21 -165 48t-81 223q-2 149 93 266l11 -1l8 -6l36 -80q-25 -42 -16.5 -210t51.5 -201.5t132 26t151 252.5q-184 2 -275 158q-2 -4 -39 63zM229 368l18 -47q35 -59 90 -97.5t144 -43.5q15 93 12 137q-32 211 -164 241.5
t-100 -190.5z" />
    <glyph glyph-name="pp.dlg" unicode="&#xe007;" horiz-adv-x="1438" 
d="M809 332q-5 -111 -3 -218q181 41 324 59q51 287 -90 336l-21 -1q-90 -15 -136 -72q-55 -62 -74 -104zM107 292v-201q50 83 130 178q93 89 194 144q-26 53 -102.5 57t-177.5 -112q-44 -50 -44 -66zM118 14q3 -114 11 -186q0 -14 96 22t162.5 143.5t70.5 221t-13 176.5
q-157 -102 -234.5 -213.5t-92.5 -163.5zM684 -194l49 3q53 -4 132.5 33t146.5 116t106 181q-127 -10 -309 -59q0 -145 8 -338t38 -528l-9 -72l-23 -21q-25 -26 -50 82q-30 146 -47 384l-11 186q-112 22 -139 71t1.5 118t130.5 124q0 91 -4 185q0 176 -23 194q-11 7 -19 6
q-75 -7 -175 -60v-3q34 -64 34 -185q0 -210 -235 -386q-79 -50 -147 -50h-7q57 -514 57 -536q1 -91 -18 -106l-22 -7q-34 44 -76 301q-38 273 -38 370q-28 4 -28 9v13q3 52 19 122v13q0 54 -13 323q-13 214 21 257l59 -26q13 -42 13 -142l11 8q118 113 238 113q58 0 116 -66
h3q176 94 233 93l18 -1q48 9 79 -140q45 76 134.5 128t159 32.5t104.5 -130.5q22 -82 -10 -230q122 33 199 131l47 15q-19 -38 -83.5 -94.5t-171.5 -86.5q-35 -95 -116 -195t-171.5 -138t-179.5 -42q-13 173 -9 277q-76 -40 -92 -93.5t-3.5 -92.5t72.5 -60z" />
    <glyph glyph-name="rr.dlg" unicode="&#xe008;" horiz-adv-x="1322" 
d="M160 471q20 -66 -22 -140q130 6 202 22.5t80 -41.5q-69 -255 -50.5 -411.5t82 -108t125 224.5t101.5 339q-115 32 -97.5 123t83.5 97.5t70 -52t-22 -131.5q53 -18 261 53q56 2 46 -53v-4q-78 -517 -14.5 -565.5t290.5 488.5l27 19q-206 -537 -295.5 -570t-129 63
t-17.5 260.5t79 306.5l-17 8q-174 -64 -242 -48q-94 -368 -167.5 -502t-136 -130t-93.5 79t-29.5 195.5t61.5 290.5v20q-172 -24 -234 -14t-93 79l-4 19q-4 115 66 132t90 -49zM85.5 449.5q-11.5 -70.5 29.5 -107.5q43 77 12.5 127.5t-42 -20zM693 401q31 105 6.5 132.5
t-41.5 -32.5t35 -100z" />
    <glyph glyph-name="ss.dlg" unicode="&#xe009;" horiz-adv-x="1207" 
d="M295.5 584.5q-2.5 -61.5 -115.5 -264.5q185 -87 234 -146q77 57 226 183l25 -8q-136 -124 -233 -197q111 -102 104 -200q-12 -162 -125 -262.5t-215 -95.5t-96.5 187t245.5 348q-32 35 -265 167q-80 44 -80 100v4q0 98 82.5 169t149 74t64 -58.5zM152 332q92 166 104 223
t-51 24.5t-97 -98t-11 -102.5t55 -47zM221.5 -349q87.5 8 148 98t70.5 174.5t-74 182.5q-254 -181 -243 -322t98.5 -133zM794 570.5q8 -63.5 -146 -248.5q185 -87 323 -234q179 175 201 227l35 16q-20 -74 -219 -264q42 -58 26 -169.5t-118 -185.5t-177 -57.5t-64.5 95
t252.5 284.5q-57 94 -359 264q-80 44 -80 100v4q-1 75 69.5 140.5t159.5 78.5t97 -50.5zM560 370q28 -26 60 -36q125 149 139.5 197.5t-46.5 38.5t-116 -81t-37 -119zM768.5 -317.5q67.5 12.5 118.5 87.5t55.5 138t-20.5 103q-214 -188 -217.5 -264.5t64 -64z" />
    <glyph glyph-name="tt.dlg" unicode="&#xe00a;" horiz-adv-x="1267" 
d="M334 875q-34 -312 -31 -626t46.5 -394.5t123 8.5t290.5 450q24 -15 -149 -311.5t-257 -306.5t-113.5 83t-26.5 427t45 662l8 44q6 30 18 108l60 1q-12 -88 -10 -103zM1255 938v-34q-104 -5 -170 -11.5t-174 -18.5l-74 -6q-34 -312 -44 -600t50.5 -379.5t134 -15.5
t261.5 438q15 14 28 17q-217 -463 -304 -534.5t-156 -16.5t-91.5 161t-7.5 350t57 572q-54 -6 -156 -16.5l-296 -29.5l-301 -32q-12 23 4 55q463 39 585 51q104 8 172 16q6 30 18 108l60 1q-12 -88 -10 -103l276 20q38 0 72 4q35 2 66 4z" />
    <glyph glyph-name="ca.dlg" unicode="&#xe00b;" horiz-adv-x="1625" 
d="M384 580q92 0 116 -108q4 -34 4 -56q0 -32 -28 -32q-10 87 -32 119.5t-52 32.5h-12q-113 0 -181 -155t-62.5 -347t141.5 -245q16 -4 32 -4h24q112 2 314 232l-3 41q-6 247 133 390.5t269 149.5q72 0 72 -48v-16q-28 -71 -379 -471q9 -67 61 -59q127 6 330 380
q32 64 68 64q64 0 71 -58v-4l6 -330q12 -162 52 -186h8q42 4 261 453l28 8q-194 -408 -245.5 -470.5t-101 -52t-73 79.5t-30.5 179.5t-5 220.5t-25 63q-125 -203 -206 -297.5t-164 -110.5t-114 49q-229 -263 -371 -263h-32q-136 14 -197 156t-37 296.5t126 276.5t234 122z
M730 95q300 327 345 443q-6 16 -12 16h-8q-93 2 -200.5 -116t-124.5 -343z" />
    <glyph glyph-name="ie.dlg" unicode="&#xe00f;" horiz-adv-x="980" 
d="M250 800l2 -40q-35 -68 -66.5 -62.5t-35.5 58.5q10 56 48 62t52 -18zM676.5 500q27.5 -72 -11.5 -184t-143 -252q73 -148 117 -155.5t138 124t175 279.5l28 18q-157 -289 -244.5 -402.5t-137 -113.5t-154.5 186q-234 -232 -332 -228t-112 272v28q0 138 86 438q4 0 4 4
q74 -2 74 -46v-12q-68 -390 -68 -436v-8q0 -146 45.5 -165t132 46t152.5 137q-42 116 -37 255.5t77.5 239t127.5 73.5t82.5 -98zM504 96q88 110 124 226t-8 184t-101 -45t-15 -365z" />
    <glyph glyph-name="oa.dlg" unicode="&#xe010;" horiz-adv-x="1504" 
d="M1153 422q31 -6 22 -141q-21 -239 9.5 -299t59 -29.5t127 192t105.5 177.5q25 11 28 11q-205 -389 -241.5 -434.5t-72.5 -42.5t-71.5 42.5t-44 128t-2.5 239.5q-223 -351 -317.5 -356t-123 100.5t31 227t178 229t190.5 77t56 -56.5q-74 29 -139.5 11t-142 -166.5
t-95 -267t76 -97t265.5 413.5q33 37 65 51l21 -3zM264 -177l-56 -6q-99 8 -160 94q-48 131 -34 230q8 130 70 260q98 135 234 106l18 -35q-99 31 -172 -99q-42 -124 -46 -211t8.5 -169t45.5 -121t121 11q93 73 148 326l36 8q-41 -318 -213 -394zM788 368
q-20 -16 -82.5 -53.5t-222.5 -55.5q-5 -91 -21.5 -104.5t-31.5 9.5q10 63 9.5 70.5t0.5 19.5q-19 -2 -82.5 -2t-93.5 14.5t-13 60.5t118 84t111 -116q165 14 279.5 100t81.5 37.5t-53 -64.5zM439 289q-12 123 -96 73.5t-69 -65t165 -8.5z" />
    <glyph glyph-name="on.dlg" unicode="&#xe011;" horiz-adv-x="1588" 
d="M651 559q11 13 -43.5 43.5t-371.5 -113.5q262 -91 252 -333.5t-225 -300.5h-30q-100 6 -192 135q-41 81 -41 146q0 119 93 243q21 21 36 26q55 -32 52 -90q-24 -28 -46.5 -96.5t-14.5 -157t48 -130.5t104.5 -30.5t121.5 91.5t48 243t-252 252l-3 8q21 16 131 48
q184 90 273 90h11q121 0 142 -135l-91 -17q1 35 -2 78zM1262 -12.5q22 -26.5 52.5 -4.5t101.5 123l140 206l32 15q-245 -402 -301 -433.5t-82.5 -7t-45.5 73.5t-51 268l-12 98q-11 60 -28 48q-54 -51 -84 -124l-143.5 -364.5t-130.5 -119.5q-46 51 -58 568q6 191 -5 247
l52 19q55 -36 61 -182q-4 -115 -2 -190q-18 -530 68.5 -292.5t130.5 324.5q93 190 158.5 165t95 -218t51.5 -219.5z" />
    <glyph glyph-name="oi.dlg" unicode="&#xe012;" horiz-adv-x="1169" 
d="M748 768q20 0 33 -22v-18q-24 -36 -29 -36q-40 0 -40 47q10 29 36 29zM755 588h29q11 0 18 -12q1 -67 -1.5 -371.5t0.5 -369.5q10 -96 69 -9t270 486l29 16q-157 -330 -297 -570q-42 -65 -102 -47q-58 17 -69 95q-3 77 4 505q-52 -132 -191 -261q-37 -115 -98.5 -178.5
t-144 -63t-127.5 62t-62 131.5q-82 94 -72 202.5t78 202.5q0 98 24 106h38q5 -15 7 -41q66 53 173 38t151 -92t47.5 -169t-9.5 -165q123 120 186 286q7 199 15 213zM153 433l-7 -399q75 -52 141 -52h18q77 0 180 76q14 71 14 126q-3 155 -77 228t-153 68q-66 0 -116 -47z
M86 356q-36 -80 -37 -140.5t31 -116.5q1 82 2 135t4 122zM287 -58q-59 0 -136 33q5 -47 52 -96.5t126.5 -36t144.5 179.5h-3q-106 -80 -184 -80z" />
    <glyph glyph-name="ov.dlg" unicode="&#xe013;" horiz-adv-x="1511" 
d="M324 662q44 -32 44 -64v-8q0 -14 -36 -112h28q89 0 168 -88q263 121 292 121h8q52 0 48 -169q0 -430 56 -520q50 41 190 403q38 112 46 121q16 16 44 16q31 -42 94.5 -78t170.5 30l34 15q-33 -50 -115 -74.5t-176 33.5q-128 -347 -172 -434q-63 -138 -116 -144h-4
q-59 49 -86.5 171t-34.5 241.5t5 336.5h-4q-15 9 -264 -93q60 -94 60 -244q0 -216 -176 -380q-53 -36 -112 -36q-140 0 -196 260q-8 34 -8 100q0 37 4 132q-69 -24 -80 -24q-36 20 -36 44q6 75 72 148t116 88q85 208 116 208h20zM276 290l208 80q-46 64 -120 64h-8
q-52 0 -52 -36q-28 -90 -28 -108zM36 226q4 -8 4 -12q96 26 96 56l32 120q-88 -44 -132 -164zM236 38v-24q14 -252 120 -252q88 0 180 184q20 64 28 164q0 145 -64 236q-232 -95 -240 -104q-24 -101 -24 -204z" />
    <glyph glyph-name="ow.dlg" unicode="&#xe014;" horiz-adv-x="1850" 
d="M821 -240.5q72 -3.5 114 152.5l67.5 257.5t55.5 107.5l54 16q30 -14 57.5 -169t99.5 -260.5t97.5 -21t16 235t-12.5 202t104 81.5q157 -265 327 -70l16 23l33 16q-142 -263 -389 -73q14 -177 -0.5 -329.5t-88 -196.5t-129 -5t-97 114t-97.5 268q-28 -23 -94.5 -228.5
t-154.5 -186.5q-185 109 -110 608l54 90q60 60 70 19.5t-38 -95.5t-37.5 -303.5t82.5 -252zM87 56q1 200 84 288q11 -2 22 -31q-24 -119 -28 -288q106 -30 327 137q-35 265 -139 327.5t-203.5 -37t-104 -243.5t41.5 -153zM169 -28q21 -183 104 -203.5t147 69t76 284.5
q-210 -171 -327 -150zM731 332q-68 -59 -175 -171q2 -221 -82 -328.5t-177.5 -105t-144.5 60.5t-70 214q-24 -2 -53 62.5t-3.5 206t118.5 215.5t176.5 63.5t149 -88.5t81.5 -249q115 114 223 203q-14 -20 10 -5l-25 -53z" />
    <glyph glyph-name="ou.dlg" unicode="&#xe015;" horiz-adv-x="1487" 
d="M87 84q1 200 84 288q11 -2 22 -31q-24 -119 -28 -260q70 -6 291 129q9 185 -99 277.5t-207.5 -7t-104 -243.5t41.5 -153zM167 22q35 -213 108 -215.5t121 114t58 233.5q-176 -119 -287 -132zM809 448q27 0 36 -44q-52 -200 -68 -308q-4 -46 -4 -88v-60q0 -63 28 -76
q76 0 216 476q35 76 64 76q58 0 68 -88q4 -175 8 -196q0 -4 -4 -4l4 -28v-64q0 -168 66 -172l248 450h8q8 -1 8 -8q-251 -534 -278 -522h-24q-81 0 -108 164q-8 55 -12 140l8 136h-4q-25 -25 -108 -240q-86 -188 -176 -188q-92 21 -92 124v56q0 145 56 380
q-56 -49 -221 -171q-14 -173 -96 -302.5t-155.5 -131t-124.5 56.5t-70 214q-24 -2 -53 62.5t-3.5 206t118.5 215.5t165.5 55.5t141 -99.5t78.5 -222q117 78 188.5 139t91.5 61z" />
    <glyph glyph-name="le.dlg" unicode="&#xe019;" horiz-adv-x="1051" 
d="M308 1195.5q6 -143.5 -44 -374.5t-170 -486q61 -200 132.5 -296t131.5 -88t148 114q-78 143 -71.5 275t59 216.5t110 61t66.5 -176.5t-88 -335q80 -103 134.5 -113.5t108.5 22.5t193 293l33 19q-71 -133 -145 -253.5t-163.5 -140.5t-210.5 108q-156 -180 -245.5 -185
t-188 172t-95.5 538t78.5 596.5t148 206t78.5 -173zM85 374q66 135 118.5 358t59.5 381t-38 201t-97 -197t-55 -446t12 -297zM557 134q81 147 84 278t-42.5 173.5t-72 -136.5t30.5 -315z" />
    <glyph glyph-name="th.dlg" unicode="&#xe01e;" horiz-adv-x="1580" 
d="M774 -122q141 402 252 422q113 14 258 -312q66 -164 119.5 -119t151.5 445l25 14q-111 -528 -210 -500q-59 6 -132 160q-19 35 -92 180q-62 92 -116 92q-77 12 -204 -396q-27 -80 -68 -170q1 7 -11 96zM879.5 1476q64.5 -38 102.5 -112t35 -216.5t-97.5 -241.5
t-228.5 -167.5t-345 -104.5q-18 -634 26 -944t109 -397t150 -55t197 165.5t209 302.5t109 206q25 56 25 1q-188 -385 -334.5 -547t-242 -178t-169 79t-117.5 352t-40 999q-70 -10 -104 -19t-144 -21q-20 34 0 34q95 14 137.5 24t116.5 26q12 373 46 478l8 4q30 0 54 -22
q-26 -249 -32 -442q152 24 278 76t250 154t94 297t-128 232t-143.5 -405t-19 -870t54.5 -432q6 30 11 59l29 -51q-29 -82 -53 -76h-17q-95 34 -123 471l-7 195.5t12.5 477.5t62.5 527t105.5 154.5t123 -13.5z" />
    <glyph glyph-name="l.balt" unicode="&#xe021;" horiz-adv-x="1025" 
d="M720 951.5q-20 -253.5 -147.5 -528t-160.5 -314.5q100 -337 202.5 -395.5t229 230.5t149.5 370q11 14 32 16q-231 -649 -334 -686.5t-189.5 53t-154.5 333.5q-163 -225 -263 -337l-50 -26q-34 -4 46.5 77t245.5 337q-50 236 -18.5 546.5t149 480t200.5 133.5t63 -289.5z
M396 157q76 116 159 334.5t108 367t11 260t-93 44.5t-136.5 -271.5t-59 -379.5t10.5 -355z" />
    <glyph glyph-name="r.balt" unicode="&#xe022;" horiz-adv-x="856" 
d="M305 629q1 -53 -23 -133q242 -37 242 -94q4 -16 4 -28q-70 -244 -70 -348v-56q-2 -152 42.5 -172t126.5 81t201 443l28 6q-140 -400 -208.5 -509t-144 -109t-113.5 120q-12 56 -12 92v24q0 109 90 392q0 41 -208 88q-63 -331 -128 -460q-64 -154 -108 -154h-16q-8 0 -8 8
q80 99 124 219t94 403q-66 41 -80 90q-4 116 81 133t86 -36zM242 502q22 77 24 103.5t-26.5 29.5t-36 -47t38.5 -86z" />
    <glyph glyph-name="s.balt" unicode="&#xe023;" horiz-adv-x="1005" 
d="M431 744h3q71 0 71 -109q0 -64 -106 -264l263 -160q9 -9 47 -36q61 22 113 50.5t144 88.5l39 14q-41 -55 -271 -174q87 -60 71 -205t-145 -260t-266 -110.5t-150 132t76 227t279 188.5l-242 154q-112 -252 -273 -544q-48 -56 -66 -56h-4q-14 7 -14 21q70 60 147.5 222
l174.5 371v3q-84 66 -84 145v7q0 116 105 249q66 46 88 46zM290 494v-3q0 -73 64 -106h7q95 192 95 254v14q-7 31 -18 31h-14q-49 0 -116 -116q-18 -34 -18 -74zM433.5 -387q106.5 -12 178.5 99.5t82 218t-71 175.5q-148 -71 -237 -164t-74 -205t121.5 -124z" />
    <glyph glyph-name="a.alt" unicode="&#xe025;" horiz-adv-x="927" 
d="M603 458q32 -7 3 -234q-22 -251 9.5 -314t61.5 -31t121.5 227l99.5 212q25 12 29 11q-192 -459 -231 -492t-80 -22.5t-63.5 41t-37.5 114t-4 288.5q-241 -393 -351.5 -405.5t-135 127t10 268.5t157.5 219t234 84.5t94 -33.5q-29 11 -133 -11.5t-192 -150t-77.5 -283
t94.5 -149.5t274 397q46 127 84 143l16 1z" />
    <glyph glyph-name="f.alt" unicode="&#xe026;" horiz-adv-x="599" 
d="M320.5 929q7.5 -95 -20.5 -209t-88 -218.5t-104 -169.5q-2 -363 60 -748q51 -274 130 -260t100 162q4 225 -49 348.5t-88.5 164.5t-68.5 75l14 28q272 89 358 212q20 9 35 14l-18 -29q-98 -140 -325 -195v-12q78 -113 120 -228q58 -141 60 -336q0 -116 -71 -207t-140 -90
t-121 161q-72 337 -90 568q-14 169 -12 316l8 152q42 444 194 642q33 42 71 -2t45.5 -139zM108 496l2 -116q86 109 154 292q36 108 36 196q-4 117 -60 172h-8q-124 -223 -124 -544z" />
    <glyph glyph-name="h.alt" unicode="&#xe027;" horiz-adv-x="980" 
d="M140 1431q32 -9 43 -55v-90q-60 -910 -34 -1036v-55q-8 -387 19 -391q77 410 163.5 563t180.5 143l44 -25l21 -59q3 -246 40.5 -348.5t91.5 -114t91 48.5q83 104 151 301l29 15q-98 -340 -265 -444l-47 -5q-85 12 -121 131.5t-51 395.5l-11 25q-39 38 -103 -59.5
t-123.5 -372t-102.5 -263.5h-17q-96 34 -109 437q0 9 -5 94q-25 176 9 845q14 227 38 308z" />
    <glyph glyph-name="s.alt" unicode="&#xe028;" horiz-adv-x="672" 
d="M337 142q-263 -131 -281 -272t62.5 -157t154 75t81 185.5t-16.5 168.5zM169 485l-56 -176q-10 16 -12 6q53 190 43.5 230t-45.5 -54.5t11.5 -145t157.5 -67.5q116 -13 166 -71q41 14 89 32.5t121 71.5l28 20q-16 -36 -64 -67.5t-87 -47t-77 -33.5q11 -32 14 -115
t-26.5 -169t-121.5 -172.5t-198 -72t-98.5 186t313.5 323.5q-20 50 -165.5 70t-153.5 128t56 180t90.5 46.5t14.5 -103.5z" />
    <glyph glyph-name="b.ealt" unicode="&#xe032;" horiz-adv-x="606" 
d="M101 1194l5 -932q16 -238 22 -249q11 301 131.5 417t233.5 51t106 -217l-10 -140l-3 -38q-28 -180 -107 -270t-225 -8.5t37 26.5t198 219l2 33q7 357 -145 360.5t-199 -455.5q-8 -107 -22 -145l-56 -86q-35 -16 -46 117q-19 255 -18 570q-2 300 -5 702q38 51 101 45z
M61 502z" />
    <glyph glyph-name="d.ealt" unicode="&#xe033;" horiz-adv-x="729" 
d="M696 1016q-32 -163 -76 -599q-8 -260 -8 -375.5t8.5 -183t5.5 -84t-15.5 -41t-40.5 -33.5t-37 73q-30 324 -15 430q-148 -381 -333 -329.5t-135 353.5t232 316q63 3 115.5 -25.5t62.5 -74.5q10 -54 -34 -26q-27 78 -105 93t-139.5 -166t-36.5 -334t121.5 -101t167 235
t83.5 243t68 482t102 430l42 -54q-1 -66 -33 -229z" />
    </font>
</defs>
</svg>
